<svg width="129" height="33" viewBox="0 0 129 33" fill="none" xmlns="http://www.w3.org/2000/svg">
<g clip-path="url(#clip0_163_504)">
<path d="M20.0816 15.4836L32.2892 15.4921V20.9901L0.196194 20.9729V15.475L12.4082 15.4836V13.5936H5.18825C4.66507 13.5893 4.24652 13.4175 3.89773 13.0395L1.9445 11.0121C1.59571 10.6342 1.42132 10.2562 1.42132 9.74073V4.71523L0 0.969727L31.0772 0.986908V6.31308L9.09906 6.3002V8.25885L31.2472 8.27174V13.5979H20.0816V15.4836ZM1.2382 27.8411V22.515L31.0641 22.5321V32.9096H23.3864V27.854L1.24256 27.8411H1.2382Z" fill="#6C5CE7"/>
<path d="M36.7537 18.3444C36.2306 18.3444 35.812 18.1726 35.4632 17.7946L33.51 15.7672C33.1612 15.3893 32.9868 15.0113 32.9868 14.4958V7.58899L45.9313 7.59758V6.32617L32.9912 6.31758V1.50685L49.6677 1.51544C50.1909 1.51544 50.6094 1.68725 50.9582 2.06523L52.9114 4.09262C53.2602 4.4706 53.4346 4.84859 53.4346 5.36403V12.2365L40.4902 12.2279V13.5337L54.3022 13.5423V18.353L36.7537 18.3444V18.3444ZM64.0291 18.7052H56.3557L56.3645 4.7498L54.5856 1H64.0379L64.0291 18.7009V18.7052Z" fill="#6C5CE7"/>
<path d="M84.8956 4.76699C85.2095 5.17934 85.3839 5.55732 85.3142 6.07276L81.4993 31.3979L73.791 32.0808L77.571 7.88967H66.4795L65.4375 1.52403L81.5865 1.53263C82.1445 1.53263 82.5631 1.7388 82.877 2.15115L84.9 4.76269H84.8956V4.76699ZM94.9757 32.9571H87.3023L87.3197 4.77558L85.5409 1.02148H94.9931L94.9757 32.9485V32.9571Z" fill="#6C5CE7"/>
<path d="M109.773 14.8137L115.075 15.5396L119.914 31.9348H112.38L108.517 18.731L104.288 31.9262H96.7544L104.441 7.90686H97.4302V1.54552L118.955 1.55841V7.91545H111.975L109.773 14.818V14.8137ZM128.983 32.9657H121.309L121.327 4.78418L119.548 1.04297H129L128.983 32.9699V32.9657Z" fill="#6C5CE7"/>
<path d="M64.1774 19.2207V32.6908H33.4229V19.2207H40.8346V21.5573H56.7656V19.2207H64.1774V19.2207ZM35.193 27.1584C44.4577 27.2271 49.2361 28.8078 49.2361 32.1753C49.2361 28.8078 53.9797 27.1928 63.24 27.1241C53.9753 27.0553 49.2361 25.4747 49.2361 22.0728C49.2361 25.4747 44.4577 27.0897 35.193 27.1584V27.1584Z" fill="#6C5CE7"/>
</g>
<defs>
<clipPath id="clip0_163_504">
<rect width="129" height="32" fill="white" transform="translate(0 0.969727)"/>
</clipPath>
</defs>
</svg>
