<svg width="289" height="289" viewBox="0 0 289 289" fill="none" xmlns="http://www.w3.org/2000/svg">
<path opacity="0.7" d="M39.9037 96.7769C39.9037 96.7769 23.8448 138.249 46.4125 180.009C68.9801 221.769 115.463 243.83 152.667 262.694C189.871 281.558 228.503 272.371 246.86 241.474C265.218 210.577 240.041 188.522 240.006 144.464C239.971 100.406 246.601 88.7417 222.726 51.5206C198.851 14.2995 140.323 6.05694 96.0636 33.6646C51.8038 61.2723 39.9037 96.7769 39.9037 96.7769Z" fill="white"/>
<path d="M251.572 120.877C241.095 109.287 223.538 107.991 209.887 100.394C186.392 87.3188 177.286 57.5453 155.91 41.233C142.415 30.9341 124.178 26.9424 107.872 29.2004C84.7225 32.4029 62.9439 47.9203 56.4005 70.6724C54.5239 77.2975 53.8528 84.206 54.4191 91.0685C55.4674 104.633 58.382 118.371 55.6287 131.694C52.5989 146.382 43.0431 158.766 37.3349 172.642C30.2271 189.922 29.2709 209.281 32.2892 227.696C34.3628 240.264 38.4927 252.953 47.1269 262.319C47.7778 263.028 48.4575 263.701 49.1487 264.364H143.388C149.298 256.824 153.756 247.902 158.98 239.988C172.067 220.064 193.022 205.86 215.906 199.201C226.159 196.217 237.265 194.437 245.501 187.646C253.98 180.654 257.874 169.502 259.562 158.645C261.601 145.477 260.495 130.743 251.572 120.877Z" fill="#6C5CE7"/>
<path opacity="0.7" d="M251.572 120.877C241.095 109.287 223.538 107.991 209.887 100.394C186.392 87.3188 177.286 57.5453 155.91 41.233C142.415 30.9341 124.178 26.9424 107.872 29.2004C84.7225 32.4029 62.9439 47.9203 56.4005 70.6724C54.5239 77.2975 53.8528 84.206 54.4191 91.0685C55.4674 104.633 58.382 118.371 55.6287 131.694C52.5989 146.382 43.0431 158.766 37.3349 172.642C30.2271 189.922 29.2709 209.281 32.2892 227.696C34.3628 240.264 38.4927 252.953 47.1269 262.319C47.7778 263.028 48.4575 263.701 49.1487 264.364H143.388C149.298 256.824 153.756 247.902 158.98 239.988C172.067 220.064 193.022 205.86 215.906 199.201C226.159 196.217 237.265 194.437 245.501 187.646C253.98 180.654 257.874 169.502 259.562 158.645C261.601 145.477 260.495 130.743 251.572 120.877Z" fill="white"/>
<path d="M119.675 203.918L111.098 264.34H107.89L112.63 203.918" stroke="#263238" stroke-linecap="round" stroke-linejoin="round"/>
<path d="M146.481 203.918L155.058 264.34H158.266L153.526 203.918" stroke="#263238" stroke-linecap="round" stroke-linejoin="round"/>
<path d="M99.5144 203.918L90.9378 264.34H87.7295L92.47 203.918" stroke="#263238" stroke-linecap="round" stroke-linejoin="round"/>
<path d="M125.746 203.918L134.323 264.34H137.531L132.791 203.918" stroke="#263238" stroke-linecap="round" stroke-linejoin="round"/>
<path d="M151.528 201.73H92.4475C91.2077 201.73 89.9801 201.485 88.8347 201.011C87.6893 200.537 86.6486 199.841 85.7719 198.965C84.8953 198.088 84.1999 197.047 83.7255 195.902C83.251 194.756 83.0068 193.529 83.0068 192.289V192.289C83.0068 191.597 83.2817 190.933 83.7711 190.444C84.2604 189.955 84.9241 189.68 85.6161 189.68H158.365C158.707 189.68 159.046 189.747 159.363 189.878C159.679 190.01 159.966 190.202 160.208 190.444C160.45 190.687 160.641 190.974 160.772 191.291C160.902 191.607 160.969 191.947 160.968 192.289C160.968 194.793 159.974 197.194 158.203 198.965C156.433 200.735 154.032 201.73 151.528 201.73V201.73Z" stroke="#263238" stroke-linecap="round" stroke-linejoin="round"/>
<path d="M84.3545 197.145H103.985" stroke="#263238" stroke-linecap="round" stroke-linejoin="round"/>
<path d="M107.181 189.68C104.14 189.68 106.265 201.73 114.318 201.73" stroke="#263238" stroke-linecap="round" stroke-linejoin="round"/>
<path d="M107.262 197.145H112.336" stroke="#263238" stroke-linecap="round" stroke-linejoin="round"/>
<path d="M115.223 197.145H117.872" stroke="#263238" stroke-linecap="round" stroke-linejoin="round"/>
<path d="M121.99 197.145H159.626" stroke="#263238" stroke-linecap="round" stroke-linejoin="round"/>
<path d="M84.3542 187.595L79.9766 156.52H84.2908L88.7894 189.68" stroke="#263238" stroke-linecap="round" stroke-linejoin="round"/>
<path d="M99.486 187.595L95.1084 156.52H99.4169L103.921 189.68" stroke="#263238" stroke-linecap="round" stroke-linejoin="round"/>
<path d="M114.612 187.595L110.24 156.52H114.549L119.053 189.68" stroke="#263238" stroke-linecap="round" stroke-linejoin="round"/>
<path d="M114.03 156.145H78.8247C77.5909 156.109 76.4079 155.646 75.4773 154.835C74.5467 154.024 73.9261 152.915 73.7214 151.698L71.475 136.469C71.3695 135.917 71.3892 135.349 71.5328 134.806C71.6763 134.263 71.9401 133.759 72.3044 133.332C72.6688 132.904 73.1245 132.564 73.638 132.337C74.1514 132.109 74.7094 131.999 75.2708 132.016H110.47C111.705 132.054 112.889 132.518 113.821 133.329C114.752 134.141 115.373 135.251 115.579 136.469L117.826 151.727C117.925 152.276 117.901 152.841 117.755 153.379C117.609 153.918 117.344 154.417 116.98 154.84C116.617 155.264 116.163 155.601 115.653 155.826C115.142 156.052 114.588 156.161 114.03 156.145V156.145Z" stroke="#263238" stroke-linecap="round" stroke-linejoin="round"/>
<path d="M113.154 154.556H114.237" stroke="#263238" stroke-linecap="round" stroke-linejoin="round"/>
<path d="M105.747 154.556H111.046" stroke="#263238" stroke-linecap="round" stroke-linejoin="round"/>
<path d="M73.4912 138.6L75.2999 150.592C75.4667 151.695 76.0234 152.701 76.8689 153.428C77.7144 154.155 78.7927 154.555 79.9079 154.555H104.555" stroke="#263238" stroke-linecap="round" stroke-linejoin="round"/>
<path d="M73.0645 135.777L73.2833 137.258" stroke="#263238" stroke-linecap="round" stroke-linejoin="round"/>
<path d="M42.6289 264.341H246.925" stroke="#263238" stroke-linecap="round" stroke-linejoin="round"/>
<path d="M119.801 66.4908C119.705 66.1913 119.66 65.8778 119.668 65.5634C119.672 64.32 120.107 63.1165 120.901 62.1593C121.802 61.0442 122.281 59.6471 122.254 58.2137C122.254 57.1365 121.822 56.7276 121.074 56.7276C120.325 56.7276 119.887 57.1365 119.887 58.2137V59.861H117.646V58.3749C117.646 55.9557 118.798 54.5791 121.137 54.5791C123.476 54.5791 124.628 55.9557 124.628 58.3749C124.628 59.9877 124.196 61.1513 123.032 62.7065C122.105 63.9564 121.822 64.6879 121.822 65.6556C121.82 65.9382 121.849 66.2203 121.909 66.4965L119.801 66.4908ZM121.978 67.5449V69.8489H119.674V67.5449H121.978Z" fill="#263238"/>
<path d="M130.796 77.3486L135.98 80.1768L132.887 74.5147C135.638 72.4779 137.577 69.5304 138.359 66.1973" stroke="#263238" stroke-linecap="round" stroke-linejoin="round"/>
<path d="M123.677 78.0919C125.643 77.8821 127.564 77.3692 129.373 76.5713" stroke="#263238" stroke-linecap="round" stroke-linejoin="round"/>
<path d="M104.56 63.4502C104.56 71.5948 112.192 78.2016 121.609 78.2016" stroke="#263238" stroke-linecap="round" stroke-linejoin="round"/>
<path d="M107.704 54.9141C107.222 55.5014 106.787 56.1254 106.402 56.7803" stroke="#263238" stroke-linecap="round" stroke-linejoin="round"/>
<path d="M138.659 63.4499C138.659 55.3053 131.027 48.6985 121.609 48.6985C117.348 48.6484 113.201 50.0728 109.87 52.7305" stroke="#263238" stroke-linecap="round" stroke-linejoin="round"/>
<path d="M141.447 126.027C125.077 130.22 118.805 142.051 117.946 152.005C116.915 164.003 126.828 195.74 126.943 200.049C127.519 221.39 134.236 231.677 135.445 247.943H151.418C151.418 247.943 153.382 204.951 154.591 200.049C155.801 195.147 160.3 169.146 161.331 155.432C162.949 133.878 155.726 127.087 155.726 127.087C148.808 121.315 141.447 126.027 141.447 126.027Z" fill="#263238"/>
<path d="M151.976 151.135C149.441 153.794 146.451 155.979 143.146 157.586C143.146 157.586 144.022 192.561 142.927 195.752C141.833 198.943 140.456 202.606 144.079 247.943" stroke="white" stroke-linecap="round" stroke-linejoin="round"/>
<path d="M142.063 244.4C142.063 244.4 145.254 242.125 151.855 242.58C151.855 242.58 152.333 250.5 153.232 252.804C154.131 255.108 158.871 259.099 159.747 259.785C160.622 260.47 160.628 262.861 160.628 262.861H140.583C140.837 259.432 141.371 256.03 142.179 252.688L142.063 244.4Z" fill="white"/>
<path d="M142.063 244.4C142.063 244.4 145.254 242.125 151.855 242.58C151.855 242.58 152.333 250.5 153.232 252.804C154.131 255.108 158.871 259.099 159.747 259.785C160.622 260.47 160.628 262.861 160.628 262.861H140.583C140.837 259.432 141.371 256.03 142.179 252.688L142.063 244.4Z" stroke="#263238" stroke-linecap="round" stroke-linejoin="round"/>
<path d="M146.205 245.426C146.205 245.426 146.677 252.718 147.806 254.642C148.412 255.699 149.16 256.668 150.03 257.522" stroke="#263238" stroke-linecap="round" stroke-linejoin="round"/>
<path d="M150.605 258.53C150.605 258.53 151.613 259.785 152.737 259.952C153.86 260.119 159.752 259.785 159.752 259.785L157.35 257.706C157.35 257.706 152.431 256.854 150.605 258.53Z" fill="#6C5CE7" stroke="#263238" stroke-linecap="round" stroke-linejoin="round"/>
<path d="M148.497 256.854C148.497 256.854 152.777 254.394 155.824 256.249" stroke="#263238" stroke-linecap="round" stroke-linejoin="round"/>
<path d="M147.466 255.154C147.466 255.154 150.455 252.821 153.975 254.1" stroke="#263238" stroke-linecap="round" stroke-linejoin="round"/>
<path d="M146.205 252.614C146.205 252.614 149.413 250.114 152.8 251.704" stroke="#263238" stroke-linecap="round" stroke-linejoin="round"/>
<path d="M145.767 249.44C145.767 249.44 149.66 247.344 152.5 248.933" stroke="#263238" stroke-linecap="round" stroke-linejoin="round"/>
<path d="M140.583 262.861V264.342H142.887C143.479 264.019 144.142 263.85 144.817 263.85C145.491 263.85 146.154 264.019 146.746 264.342H157.569C158.712 264.337 159.84 264.083 160.875 263.599L160.645 262.861H140.583Z" fill="#6C5CE7" stroke="#263238" stroke-linecap="round" stroke-linejoin="round"/>
<path d="M143.451 243.946L143.97 247.177C143.97 247.177 149.989 245.224 153.312 246.492V242.523C153.312 242.523 147.12 240.34 143.451 243.946Z" fill="#6C5CE7" stroke="#263238" stroke-linecap="round" stroke-linejoin="round"/>
<path d="M142.179 252.688C142.179 252.688 142.179 256.294 144.362 257.498C146.545 258.702 148.97 259.981 149.223 262.843H147.466C147.466 262.843 148.042 261.288 145.767 259.963C143.492 258.639 142.248 257.849 141.487 255.799L142.179 252.688Z" fill="#6C5CE7" stroke="#263238" stroke-linecap="round" stroke-linejoin="round"/>
<path d="M134.575 244.4C134.575 244.4 137.766 242.125 144.367 242.58C144.367 242.58 144.845 250.5 145.744 252.804C146.642 255.108 151.383 259.099 152.258 259.785C153.134 260.47 153.14 262.861 153.14 262.861H133.095C133.349 259.432 133.883 256.03 134.69 252.688L134.575 244.4Z" fill="white"/>
<path d="M134.575 244.4C134.575 244.4 137.766 242.125 144.367 242.58C144.367 242.58 144.845 250.5 145.744 252.804C146.642 255.108 151.383 259.099 152.258 259.785C153.134 260.47 153.14 262.861 153.14 262.861H133.095C133.349 259.432 133.883 256.03 134.69 252.688L134.575 244.4Z" stroke="#263238" stroke-linecap="round" stroke-linejoin="round"/>
<path d="M138.717 245.426C138.717 245.426 139.189 252.718 140.318 254.642C140.924 255.699 141.672 256.668 142.541 257.522" stroke="#263238" stroke-linecap="round" stroke-linejoin="round"/>
<path d="M143.117 258.53C143.117 258.53 144.125 259.785 145.248 259.952C146.372 260.119 152.264 259.785 152.264 259.785L149.862 257.706C149.862 257.706 144.943 256.854 143.117 258.53Z" fill="#6C5CE7" stroke="#263238" stroke-linecap="round" stroke-linejoin="round"/>
<path d="M141.009 256.854C141.009 256.854 145.288 254.394 148.336 256.249" stroke="#263238" stroke-linecap="round" stroke-linejoin="round"/>
<path d="M139.979 255.154C139.979 255.154 142.968 252.821 146.487 254.1" stroke="#263238" stroke-linecap="round" stroke-linejoin="round"/>
<path d="M138.717 252.614C138.717 252.614 141.925 250.114 145.312 251.704" stroke="#263238" stroke-linecap="round" stroke-linejoin="round"/>
<path d="M138.279 249.44C138.279 249.44 142.173 247.344 145.013 248.933" stroke="#263238" stroke-linecap="round" stroke-linejoin="round"/>
<path d="M133.095 262.861V264.342H135.399C135.991 264.019 136.654 263.85 137.328 263.85C138.003 263.85 138.666 264.019 139.258 264.342H150.081C151.224 264.337 152.352 264.083 153.387 263.599L153.157 262.861H133.095Z" fill="#6C5CE7" stroke="#263238" stroke-linecap="round" stroke-linejoin="round"/>
<path d="M135.964 243.946L136.482 247.177C136.482 247.177 142.501 245.224 145.825 246.492V242.523C145.825 242.523 139.633 240.34 135.964 243.946Z" fill="#6C5CE7" stroke="#263238" stroke-linecap="round" stroke-linejoin="round"/>
<path d="M134.69 252.688C134.69 252.688 134.69 256.294 136.873 257.498C139.056 258.702 141.481 259.981 141.735 262.843H139.978C139.978 262.843 140.554 261.288 138.279 259.963C136.004 258.639 134.759 257.849 133.999 255.799L134.69 252.688Z" fill="#6C5CE7" stroke="#263238" stroke-linecap="round" stroke-linejoin="round"/>
<path d="M123.58 149.384C118.69 157.736 126.587 189.335 129.167 197.843C129.167 197.843 128.856 209.449 130.682 215.699C132.508 221.948 135.964 240.703 135.964 240.703" stroke="white" stroke-linecap="round" stroke-linejoin="round"/>
<path d="M149.385 203.919C149.385 203.919 151.153 203.838 152.881 201.943" stroke="white" stroke-linecap="round" stroke-linejoin="round"/>
<path d="M133.729 199.535C133.729 199.535 133.424 202.553 136.764 203.919" stroke="white" stroke-linecap="round" stroke-linejoin="round"/>
<path d="M145.053 158.495C145.053 158.495 149.125 158.8 152.212 156.52" stroke="white" stroke-linecap="round" stroke-linejoin="round"/>
<path d="M135.243 151.636C135.243 151.636 139.195 153.053 140.715 155.547" stroke="white" stroke-linecap="round" stroke-linejoin="round"/>
<path d="M140.744 157.517C140.744 157.517 136.032 157.609 132.236 155.547" stroke="white" stroke-linecap="round" stroke-linejoin="round"/>
<path d="M148.716 142.806C148.716 142.806 146.849 151.976 144.234 154.712" stroke="white" stroke-linecap="round" stroke-linejoin="round"/>
<path d="M135.243 139.199C135.243 139.199 133.02 146.296 127.496 145.432" stroke="white" stroke-linecap="round" stroke-linejoin="round"/>
<path d="M158.094 141.141C158.094 141.141 159.096 146.935 160.766 146.947" stroke="white" stroke-linecap="round" stroke-linejoin="round"/>
<path d="M178.622 138.198C176.583 137.495 175.299 133.296 174.314 128.745C173.634 125.595 173.093 122.277 172.546 119.835C172.354 118.879 172.082 117.94 171.733 117.03L176.745 100.066C179.815 101.218 182.752 122.029 183.916 129.229C185.097 136.642 182.626 139.534 178.622 138.198Z" fill="white"/>
<path opacity="0.4" d="M177.032 127.208C176.81 127.721 176.425 128.147 175.937 128.42C175.449 128.693 174.884 128.797 174.331 128.717C173.651 125.566 173.11 122.248 172.562 119.806L174.866 115.59C174.866 115.59 178.835 123.337 177.032 127.208Z" fill="#6C5CE7"/>
<path d="M178.622 138.198C176.583 137.495 175.299 133.296 174.314 128.745C173.634 125.595 173.093 122.277 172.546 119.835C172.354 118.879 172.082 117.94 171.733 117.03L176.745 100.066C179.815 101.218 182.752 122.029 183.916 129.229C185.097 136.642 182.626 139.534 178.622 138.198Z" stroke="#263238" stroke-linecap="round" stroke-linejoin="round"/>
<path d="M172.274 72.13C175.661 75.8913 179.307 93.0791 176.18 100.475C173.052 107.871 146.072 106.414 143.348 103.286C140.623 100.158 146.055 94.2715 145.012 88.9838C143.97 83.6961 140.18 70.0564 152.339 66.9863C155.825 66.0797 159.485 66.0761 162.973 66.9761C166.461 67.876 169.662 69.6498 172.274 72.13Z" fill="#263238"/>
<path d="M134.057 127.179C134.057 127.179 133.959 101.484 138.723 97.3191C138.723 97.3191 146.009 93.1777 159.983 94.2663C165.836 94.7379 171.503 96.5512 176.543 99.5655C180.442 107.935 173.617 123.481 167.154 127.847L160.968 134.356C160.968 134.356 162.056 138.492 155.72 140.329C142.708 144.09 125.227 136.504 134.057 127.179Z" fill="#6C5CE7"/>
<path opacity="0.15" d="M175.529 115.733C173.496 121.004 170.282 125.733 167.154 127.829L160.968 134.338C161.141 135.259 160.984 136.212 160.524 137.028C150.156 140.68 150.012 136.452 150.012 136.452C153.75 137.028 161.567 131.268 161.567 131.268C161.567 131.268 161.63 130.018 158.986 128.549C156.342 127.081 149.465 129.448 149.465 129.448C152.788 132.639 155.594 132.293 154.442 133.353C153.29 134.413 149.955 132.777 149.955 132.777C149.955 132.777 142.265 130.036 142.15 133.353C142.035 136.671 143.964 137.881 143.964 137.881C139.189 137.056 134.883 134.504 131.868 130.709C132.294 129.358 133.045 128.131 134.057 127.138C134.064 120.907 134.433 114.682 135.163 108.493L140.744 113.429C140.335 113.798 140.744 115.705 140.744 115.705C140.744 115.705 143.319 121.038 146.884 123.481C150.45 125.923 159.268 122.519 159.268 122.519C161.768 123.999 165.391 123.481 165.391 123.481L167.183 118.671C171.318 120.814 175.304 115.981 175.529 115.733Z" fill="black" fill-opacity="0.7"/>
<path d="M134.057 127.179C134.057 127.179 133.959 101.484 138.723 97.3191C138.723 97.3191 146.009 93.1777 159.983 94.2663C165.836 94.7379 171.503 96.5512 176.543 99.5655C180.442 107.935 173.617 123.481 167.154 127.847L160.968 134.356C160.968 134.356 162.056 138.492 155.72 140.329C142.708 144.09 125.227 136.504 134.057 127.179Z" stroke="#263238" stroke-linecap="round" stroke-linejoin="round"/>
<path d="M148.158 94.0185C147.743 96.8294 153.474 110.774 160.45 111.828C170.535 113.361 172.079 101.322 171.146 98.5113C170.213 95.7005 165.513 97.9699 167.154 90.4934C168.796 83.0169 148.158 94.0185 148.158 94.0185Z" fill="white" stroke="#263238" stroke-linecap="round" stroke-linejoin="round"/>
<path d="M145.52 85.9255C145.52 85.9255 147.53 92.6935 146.96 97.3648C146.389 102.036 145.151 115.998 148.371 122.559L149.465 123.498C148.61 120.059 148.241 116.516 148.371 112.974C148.371 112.974 148.999 118.291 149.465 120.687C148.938 117.514 148.938 114.276 149.465 111.102C150.346 105.999 153.054 96.4144 151.389 89.848C149.724 83.2816 145.52 85.9255 145.52 85.9255Z" fill="#263238"/>
<path d="M174.936 84.6299C174.936 84.6299 181.819 100.798 179.872 111.397C177.925 121.995 171.376 120.29 171.376 120.29C171.376 120.29 176.249 121.275 178.23 113.989C180.212 106.702 175.546 93.46 175.546 93.46L174.936 84.6299Z" fill="#263238"/>
<path d="M162.949 97.3643C162.949 97.3643 161.278 101.206 158.623 102.243C155.968 103.28 154.499 102.859 153.324 99.8065C152.149 96.7537 162.949 97.3643 162.949 97.3643Z" fill="#263238"/>
<path d="M165.034 95.4406C164.53 96.8981 163.553 98.145 162.258 98.983C155.968 103.412 152.846 102.975 148.157 94.0179C146.723 91.2762 147.553 88.6726 146.648 86.5011C144.252 80.7757 145.951 74.4051 149.062 71.0643C156.694 62.816 169.4 67.2973 171.284 76.064C172.482 81.6339 170.045 84.969 167.978 89.1565" fill="white"/>
<path d="M165.034 95.4406C164.53 96.8981 163.553 98.145 162.258 98.983C155.968 103.412 152.846 102.975 148.157 94.0179C146.723 91.2762 147.553 88.6726 146.648 86.5011C144.252 80.7757 145.951 74.4051 149.062 71.0643C156.694 62.816 169.4 67.2973 171.284 76.064C172.482 81.6339 170.045 84.969 167.978 89.1565" stroke="#263238" stroke-linecap="round" stroke-linejoin="round"/>
<path d="M152.639 82.2446C153.543 81.8008 154.558 81.6324 155.558 81.7604C156.557 81.8884 157.497 82.3071 158.26 82.9646" stroke="#263238" stroke-linecap="round" stroke-linejoin="round"/>
<path d="M149.719 83.2871C150.554 85.4241 150.208 88.713 149.045 89.7959C147.368 91.3511 149.2 92.5549 150.554 92.5549" stroke="#263238" stroke-linecap="round" stroke-linejoin="round"/>
<path d="M156.7 85.8795C156.752 86.6052 156.481 87.2158 156.124 87.2388C155.767 87.2619 155.392 86.6974 155.34 85.9716C155.289 85.2459 155.559 84.6353 155.916 84.6065C156.273 84.5777 156.648 85.1479 156.7 85.8795Z" fill="#263238"/>
<path d="M148.929 85.8795C148.981 86.6052 148.716 87.2158 148.353 87.2388C147.99 87.2619 147.622 86.6974 147.576 85.9716C147.53 85.2459 147.789 84.6353 148.152 84.6065C148.514 84.5777 148.883 85.1479 148.929 85.8795Z" fill="#263238"/>
<path d="M145.675 82.9649C145.675 82.9649 146.032 81.4961 148.238 82.3371" stroke="#263238" stroke-linecap="round" stroke-linejoin="round"/>
<path d="M151.389 94.796C152.639 94.3812 153.94 96.524 153.001 97.244C152.063 97.964 151.803 95.1646 151.803 95.1646" stroke="#263238" stroke-linecap="round" stroke-linejoin="round"/>
<path d="M159.672 75.5056C162.338 77.5043 158.26 81.3404 163.018 85.9254L163.992 87.7686C163.992 87.7686 163.64 83.9958 166.215 84.5084C168.79 85.0211 167.977 93.2694 167.977 93.2694L170.593 89.5196C170.593 89.5196 178.893 73.5299 167.977 68.127C154.781 61.6009 149.609 69.3078 149.609 69.3078C143.711 72.712 143.238 79.2726 145.928 84.2838C145.928 84.2838 145.26 80.1481 146.959 76.7958C148.37 74.0483 154.568 71.7097 159.672 75.5056Z" fill="#263238"/>
<path d="M165.379 85.3663C165.379 85.3663 167.188 83.0623 169.06 83.2869C170.932 83.5115 170.788 86.8639 170.172 87.9237C169.555 88.9835 167.948 92.1746 166.906 92.2437C165.863 92.3128 165.241 92.1746 165.379 91.5525" fill="white"/>
<path d="M165.379 85.3663C165.379 85.3663 167.188 83.0623 169.06 83.2869C170.932 83.5115 170.788 86.8639 170.172 87.9237C169.555 88.9835 167.948 92.1746 166.906 92.2437C165.863 92.3128 165.241 92.1746 165.379 91.5525" stroke="#263238" stroke-linecap="round" stroke-linejoin="round"/>
<path d="M160.939 74.8832C160.939 74.8832 159.269 79.4451 160.311 82.9472C160.311 82.9472 157.604 81.4611 157.397 79.7965C157.397 79.7965 157.212 79.9232 157.397 81.1846L156.009 80.3494C155.704 80.3465 155.404 80.2681 155.137 80.1214C154.87 79.9747 154.643 79.7641 154.476 79.5085C154.062 78.6848 154.131 74.4454 154.131 74.4454C154.131 74.4454 152.979 78.6099 150.202 80.263C150.202 80.263 152.639 77.8726 152.639 76.1158C151.505 77.8431 149.999 79.2954 148.233 80.3667C148.233 80.3667 146.689 80.1017 145.514 82.0947C145.514 82.0947 142.766 76.4269 146.954 73.2301C151.141 70.0333 160.939 74.8832 160.939 74.8832Z" fill="#263238"/>
<path d="M165.898 94.082C165.898 94.082 165.38 101.466 162.045 105.844" stroke="#263238" stroke-linecap="round" stroke-linejoin="round"/>
<path d="M151.919 104.415C151.919 104.415 156.527 106.523 157.679 106.886C158.032 107.026 158.353 107.235 158.625 107.5C158.897 107.765 159.114 108.081 159.263 108.43" stroke="#263238" stroke-linecap="round" stroke-linejoin="round"/>
<path d="M170.592 104.68C170.592 104.68 166.635 106.483 165.455 106.621C164.274 106.759 163.727 108.429 163.727 108.429" stroke="#263238" stroke-linecap="round" stroke-linejoin="round"/>
<path d="M156.009 101.73C156.009 101.73 159.131 104.328 159.759 106.137" stroke="#263238" stroke-linecap="round" stroke-linejoin="round"/>
<path d="M141.32 104.715C140.635 110.763 137.559 114.432 136.309 114.438C135.491 114.438 135.508 111.477 135.508 111.477C132.744 111.995 127.053 113.977 123.147 115.405L122.802 115.532C121.563 115.987 120.527 116.379 119.864 116.632L119.357 116.822L119.058 116.937C119.928 118.089 120.786 119.241 121.587 120.393C124.605 124.713 127.347 129.177 130.624 133.757C133.308 137.529 132.352 139.459 130.624 141.245C130.624 141.245 125.953 145.68 124.587 145.357C123.222 145.035 119.455 143.785 119.571 142.875C119.686 141.965 121.166 142.529 121.166 142.529C121.186 142.093 121.264 141.661 121.396 141.245C121.621 140.479 124.536 140.093 124.536 140.093C124.826 139.18 125.307 138.34 125.947 137.627C125.947 137.627 116.973 128.29 112.601 125.215C109.381 122.945 103.667 115.555 105.827 113.522C109.859 109.766 133.573 97.2728 140.013 97.3362C139.995 97.365 141.988 98.6667 141.32 104.715Z" fill="white"/>
<path opacity="0.4" d="M121.569 120.422C119.323 120.355 117.123 119.763 115.146 118.694C117.082 118.826 119.04 116.966 119.04 116.966C119.91 118.089 120.751 119.247 121.569 120.422Z" fill="#6C5CE7"/>
<path d="M141.32 104.715C140.635 110.763 137.559 114.432 136.309 114.438C135.491 114.438 135.508 111.477 135.508 111.477C132.744 111.995 127.053 113.977 123.147 115.405L122.802 115.532C121.564 115.987 120.527 116.379 119.864 116.632L119.357 116.822L119.058 116.937C119.928 118.089 120.786 119.241 121.587 120.393C124.605 124.713 127.347 129.177 130.624 133.757C133.308 137.529 132.352 139.459 130.624 141.245C130.624 141.245 125.953 145.68 124.587 145.357C123.222 145.035 119.455 143.785 119.571 142.875C119.686 141.965 121.166 142.529 121.166 142.529C121.186 142.093 121.264 141.661 121.396 141.245C121.621 140.479 124.536 140.093 124.536 140.093C124.826 139.18 125.307 138.34 125.947 137.627C125.947 137.627 116.973 128.29 112.601 125.215C109.381 122.945 103.667 115.555 105.827 113.522C109.859 109.766 133.573 97.2728 140.013 97.3362C139.995 97.365 141.988 98.6667 141.32 104.715Z" stroke="#263238" stroke-linecap="round" stroke-linejoin="round"/>
<path d="M121.16 142.563C121.945 142.828 122.763 142.981 123.591 143.019" stroke="#263238" stroke-linecap="round" stroke-linejoin="round"/>
<path d="M123.401 140.328C123.51 140.463 123.569 140.63 123.569 140.803C123.569 140.976 123.51 141.144 123.401 141.279C123.05 141.883 122.698 141.958 122.698 141.958" stroke="#263238" stroke-linecap="round" stroke-linejoin="round"/>
<path d="M119.04 116.938C119.04 116.938 116.477 119.241 113.914 118.665" stroke="#263238" stroke-linecap="round" stroke-linejoin="round"/>
<path d="M135.491 111.476C135.491 111.476 136.28 111.28 136.972 112.444" stroke="#263238" stroke-linecap="round" stroke-linejoin="round"/>
<path d="M160.968 134.355C160.968 134.355 148.244 138.652 145.053 135.052" stroke="#263238" stroke-linecap="round" stroke-linejoin="round"/>
<path d="M136.292 114.437C136.292 114.437 138.314 116.223 141.735 112.444" stroke="#263238" stroke-linecap="round" stroke-linejoin="round"/>
<path d="M139.017 119.265C139.017 119.265 142.812 130.433 151.395 133.394" stroke="#263238" stroke-linecap="round" stroke-linejoin="round"/>
<path d="M172.845 101.73C172.845 101.73 167.661 117.766 157.869 118.688" stroke="#263238" stroke-linecap="round" stroke-linejoin="round"/>
<path d="M178.853 126.954C175.708 123.014 163.756 113.591 163.756 113.591L157.42 101.368C157.42 101.368 155.116 99.0642 154.453 98.972C153.975 98.8971 152.386 100.124 152.201 101.184C152.092 101.76 152.777 104.035 152.777 104.035C154.021 103.684 153.808 102.152 153.808 102.152L154.563 101.576L155.421 102.854C155.421 102.854 152.835 105.112 152.708 105.913C152.628 106.425 153.244 107.289 153.244 107.289C153.244 107.289 152.092 109.052 152.806 110.169C153.495 111.226 154.504 112.033 155.686 112.473C158.03 116.638 161.371 117.767 161.371 117.767C161.371 117.767 174.619 140.588 180.828 138.267" fill="white"/>
<path d="M178.853 126.954C175.708 123.014 163.756 113.591 163.756 113.591L157.42 101.368C157.42 101.368 155.116 99.0642 154.453 98.972C153.975 98.8971 152.386 100.124 152.201 101.184C152.092 101.76 152.777 104.035 152.777 104.035C154.021 103.684 153.808 102.152 153.808 102.152L154.563 101.576L155.421 102.854C155.421 102.854 152.835 105.112 152.708 105.913C152.628 106.425 153.244 107.289 153.244 107.289C153.244 107.289 152.092 109.052 152.806 110.169C153.495 111.226 154.504 112.033 155.686 112.473C158.03 116.638 161.371 117.767 161.371 117.767C161.371 117.767 174.619 140.588 180.828 138.267" stroke="#263238" stroke-linecap="round" stroke-linejoin="round"/>
<path d="M155.72 112.444C155.72 112.444 154.971 110.67 155.058 109.835" stroke="#263238" stroke-linecap="round" stroke-linejoin="round"/>
<path d="M155.093 110.451C155.093 110.451 154.027 110.399 153.791 110.054" stroke="#263238" stroke-linecap="round" stroke-linejoin="round"/>
<path d="M153.255 107.261C153.88 106.66 154.565 106.125 155.3 105.665" stroke="#263238" stroke-linecap="round" stroke-linejoin="round"/>
<g opacity="0.2">
<path d="M159.983 68.2646C159.983 68.2646 157.172 70.5686 157.88 77.544" stroke="white" stroke-linecap="round" stroke-linejoin="round"/>
<path d="M157.305 67.5449C155.098 68.8646 153.248 70.7061 151.919 72.9075C150.789 74.9244 149.054 76.536 146.96 77.5155" stroke="white" stroke-linecap="round" stroke-linejoin="round"/>
<path d="M152.213 68.2646C152.213 68.2646 147.904 72.2102 146.366 72.5443" stroke="white" stroke-linecap="round" stroke-linejoin="round"/>
<path d="M163.721 70.4072C163.721 70.4072 163.226 78.5979 166.267 81.7141" stroke="white" stroke-linecap="round" stroke-linejoin="round"/>
<path d="M167.978 72.1299C167.978 72.1299 168.456 79.0419 171.733 82.3366C175.01 85.6313 178.495 97.3587 178.72 101.385" stroke="white" stroke-linecap="round" stroke-linejoin="round"/>
<path d="M171.376 88.7764C171.376 88.7764 172.724 93.0791 172.188 96.057" stroke="white" stroke-linecap="round" stroke-linejoin="round"/>
<path d="M148.371 96.3682C148.371 96.3682 147.732 104.398 147.426 107.26C147.255 109.273 147.255 111.296 147.426 113.308" stroke="white" stroke-linecap="round" stroke-linejoin="round"/>
</g>
<path d="M224.137 145.432H211.719V264.341H224.137V145.432Z" fill="#999999"/>
<path opacity="0.3" d="M224.137 145.432V165.667C219.605 163.731 215.412 161.08 211.719 157.816V145.432H224.137Z" fill="black" fill-opacity="0.7"/>
<path d="M224.137 145.432H211.719V264.341H224.137V145.432Z" stroke="#263238" stroke-linecap="round" stroke-linejoin="round"/>
<path d="M189.899 137.258V144.746C189.899 145.961 202.45 146.946 217.928 146.946C233.405 146.946 245.956 145.961 245.956 144.746V137.258H189.899Z" fill="#999999" stroke="#263238" stroke-linecap="round" stroke-linejoin="round"/>
<path d="M245.956 137.258C245.956 138.473 233.405 139.458 217.928 139.458C202.45 139.458 189.899 138.473 189.899 137.258C189.899 136.043 202.45 135.058 217.928 135.058C233.405 135.058 245.956 136.043 245.956 137.258Z" fill="#BFBFBF" stroke="#263238" stroke-miterlimit="10"/>
<path d="M201.293 137.472L223.947 139.2L234.563 137.472V109.697L213.844 108.545L201.293 110.273V137.472Z" fill="#6C5CE7" stroke="#263238" stroke-linecap="round" stroke-linejoin="round"/>
<path d="M218.982 125.392C219.006 126.241 218.85 127.085 218.523 127.868C218.196 128.652 217.707 129.357 217.087 129.937C216.467 130.517 215.731 130.959 214.928 131.233C214.124 131.507 213.272 131.607 212.427 131.527C210.635 131.329 208.978 130.482 207.77 129.144C206.562 127.806 205.886 126.072 205.872 124.269C205.846 123.42 206.001 122.575 206.327 121.79C206.653 121.006 207.142 120.299 207.762 119.719C208.383 119.138 209.119 118.695 209.923 118.421C210.728 118.147 211.581 118.048 212.427 118.129C214.219 118.328 215.876 119.177 217.084 120.516C218.292 121.854 218.967 123.589 218.982 125.392Z" fill="#263238"/>
<path d="M214.247 122.703V122.985C214.247 123.791 214.005 124.275 213.47 124.483C213.776 124.647 214.025 124.9 214.186 125.208C214.346 125.516 214.41 125.866 214.368 126.211V126.844C214.368 128.06 213.74 128.653 212.537 128.572L210.636 128.411V120.589L212.456 120.744C213.706 120.854 214.247 121.493 214.247 122.703ZM211.845 121.816V123.884L212.318 123.93C212.767 123.964 213.038 123.786 213.038 123.158V122.72C213.038 122.144 212.853 121.902 212.427 121.862L211.845 121.816ZM211.845 125.007V127.414L212.537 127.478C212.94 127.512 213.159 127.34 213.159 126.758V126.101C213.159 125.375 212.928 125.128 212.381 125.082L211.845 125.007Z" fill="white"/>
<path d="M223.947 139.199V111.96L205.296 110.825" stroke="#263238" stroke-linecap="round" stroke-linejoin="round"/>
<path d="M223.947 111.96L234.563 109.696" stroke="#263238" stroke-linecap="round" stroke-linejoin="round"/>
<path d="M237.766 117.859L249.839 117.697" stroke="#263238" stroke-linecap="round" stroke-linejoin="round"/>
<path d="M236.395 107.26L244.597 101.73" stroke="#263238" stroke-linecap="round" stroke-linejoin="round"/>
<path d="M221.131 102.756V91.207" stroke="#263238" stroke-linecap="round" stroke-linejoin="round"/>
<path d="M206.546 102.756L202.9 96.0566" stroke="#263238" stroke-linecap="round" stroke-linejoin="round"/>
<path d="M196.749 113.654L189.474 112.231" stroke="#263238" stroke-linecap="round" stroke-linejoin="round"/>
<path d="M196.749 124.828L189.474 127.207" stroke="#263238" stroke-linecap="round" stroke-linejoin="round"/>
<path d="M238.9 127.207L244.597 129.488" stroke="#263238" stroke-linecap="round" stroke-linejoin="round"/>
<path d="M77.8336 145.432H65.415V264.341H77.8336V145.432Z" fill="#999999"/>
<path opacity="0.3" d="M77.8336 145.432V165.667C73.3008 163.731 69.108 161.08 65.415 157.816V145.432H77.8336Z" fill="black" fill-opacity="0.7"/>
<path d="M77.8336 145.432H65.415V264.341H77.8336V145.432Z" stroke="#263238" stroke-linecap="round" stroke-linejoin="round"/>
<path d="M43.5957 137.258V144.746C43.5957 145.961 56.1467 146.946 71.6239 146.946C87.101 146.946 99.652 145.961 99.652 144.746V137.258H43.5957Z" fill="#999999" stroke="#263238" stroke-linecap="round" stroke-linejoin="round"/>
<path d="M99.652 137.258C99.652 138.473 87.101 139.458 71.6239 139.458C56.1467 139.458 43.5957 138.473 43.5957 137.258C43.5957 136.043 56.1467 135.058 71.6239 135.058C87.101 135.058 99.652 136.043 99.652 137.258Z" fill="#BFBFBF" stroke="#263238" stroke-miterlimit="10"/>
<path d="M88.259 137.472L65.6049 139.2L54.9893 137.472V109.697L75.708 108.545L88.259 110.273V137.472Z" fill="#6C5CE7" stroke="#263238" stroke-linecap="round" stroke-linejoin="round"/>
<path d="M82.2054 128.691C84.4853 125.661 84.0359 121.476 81.2017 119.343C78.3675 117.21 74.2216 117.938 71.9417 120.968C69.6617 123.998 70.1111 128.183 72.9453 130.316C75.7796 132.448 79.9254 131.721 82.2054 128.691Z" fill="#263238"/>
<path d="M79.1982 128.445L77.9714 128.526L77.764 127.12L76.2722 127.218L76.0648 128.653L74.9531 128.727L76.1858 120.802L77.9598 120.687L79.1982 128.445ZM76.4277 126.141L77.5797 126.066L77.0037 122.132L76.4277 126.141Z" fill="white"/>
<path d="M65.6055 139.199V111.96L84.2909 110.825" stroke="#263238" stroke-linecap="round" stroke-linejoin="round"/>
<path d="M65.6049 111.96L54.9893 109.696" stroke="#263238" stroke-linecap="round" stroke-linejoin="round"/>
<path d="M51.7868 117.859L39.7139 117.697" stroke="#263238" stroke-linecap="round" stroke-linejoin="round"/>
<path d="M53.1573 107.26L44.9551 101.73" stroke="#263238" stroke-linecap="round" stroke-linejoin="round"/>
<path d="M68.4219 102.756V91.207" stroke="#263238" stroke-linecap="round" stroke-linejoin="round"/>
<path d="M83.0059 102.756L86.6519 96.0566" stroke="#263238" stroke-linecap="round" stroke-linejoin="round"/>
<path d="M92.8037 113.654L100.079 112.231" stroke="#263238" stroke-linecap="round" stroke-linejoin="round"/>
<path d="M92.8037 124.828L100.079 127.207" stroke="#263238" stroke-linecap="round" stroke-linejoin="round"/>
<path d="M50.6517 127.207L44.9551 129.488" stroke="#263238" stroke-linecap="round" stroke-linejoin="round"/>
</svg>
