<svg width="340" height="243" viewBox="0 0 340 243" fill="none" xmlns="http://www.w3.org/2000/svg">
<path d="M296.436 92.3839C287.174 62.0866 263.35 37.8255 235.159 25.0389C208.265 12.8403 174.265 6.80414 148.779 25.588C132.003 37.9519 122.497 57.7612 107.134 71.6268C99.4987 78.5183 91.1395 80.7588 82.0518 84.88C59.9129 94.9257 41.3829 114.302 39.8578 139.861C37.3078 182.6 71.1621 212.159 108.941 221.854C158.868 234.665 196.18 234.665 230.472 220.829C248.283 213.641 266.414 204.553 279.242 189.671C298.671 167.165 304.014 135.2 299.608 106.298C298.89 101.589 297.83 96.9386 296.436 92.3839Z" fill="#6C5CE7"/>
<path opacity="0.8" d="M296.436 92.3839C287.174 62.0866 263.35 37.8255 235.159 25.0389C208.265 12.8403 174.265 6.80414 148.779 25.588C132.003 37.9519 122.497 57.7612 107.134 71.6268C99.4987 78.5183 91.1395 80.7588 82.0518 84.88C59.9129 94.9257 41.3829 114.302 39.8578 139.861C37.3078 182.6 71.1621 212.159 108.941 221.854C158.868 234.665 196.18 234.665 230.472 220.829C248.283 213.641 266.414 204.553 279.242 189.671C298.671 167.165 304.014 135.2 299.608 106.298C298.89 101.589 297.83 96.9386 296.436 92.3839Z" fill="white"/>
<path d="M132.508 19.4404H87.958V74.9854H132.508V19.4404Z" stroke="#A3A3A3" stroke-miterlimit="10"/>
<path d="M130.686 21.7148H89.7793V72.7157H130.686V21.7148Z" stroke="#A3A3A3" stroke-miterlimit="10"/>
<path d="M118.014 37.5146H102.457V56.9109H118.014V37.5146Z" fill="#D6D6D6"/>
<path d="M165.541 37H135.33V74.6699H165.541V37Z" stroke="#A3A3A3" stroke-miterlimit="10"/>
<path d="M164.341 38.4912H136.524V73.1722H164.341V38.4912Z" stroke="#A3A3A3" stroke-miterlimit="10"/>
<path d="M155.71 49.2568H145.161V62.4129H155.71V49.2568Z" fill="#D6D6D6"/>
<path d="M111.831 113.083V82.8535H74.1831V113.083H111.831Z" stroke="#A3A3A3" stroke-miterlimit="10"/>
<path d="M110.058 111.663V84.2773H75.951V111.663H110.058Z" stroke="#A3A3A3" stroke-miterlimit="10"/>
<path d="M99.5811 103.246V92.6904H86.4328V103.246H99.5811Z" fill="#D6D6D6"/>
<path d="M153.903 82.6299H115.338V130.71H153.903V82.6299Z" stroke="#A3A3A3" stroke-miterlimit="10"/>
<path d="M152.349 84.5693H116.892V128.776H152.349V84.5693Z" stroke="#A3A3A3" stroke-miterlimit="10"/>
<path d="M141.357 98.2744H127.888V115.066H141.357V98.2744Z" fill="#D6D6D6"/>
<path d="M39.1438 123.77L48.8338 216.712" stroke="#263238" stroke-width="2" stroke-miterlimit="10"/>
<path d="M47.0512 198.555L42.8789 194.283" stroke="#263238" stroke-width="2" stroke-miterlimit="10"/>
<path d="M44.2 195.673C44.1917 194.962 44.0313 194.261 43.7297 193.618C43.4281 192.974 42.9922 192.402 42.4515 191.941C41.3246 190.935 35.3843 188.437 34.8209 190.527C34.2235 192.801 40.3143 197.272 44.2 195.673Z" fill="#6C5CE7" stroke="#263238" stroke-miterlimit="10"/>
<path d="M44.2147 195.673L38.561 192.149" stroke="#263238" stroke-width="0.5" stroke-miterlimit="10"/>
<path d="M47.8526 209.077L43.9814 204.849" stroke="#263238" stroke-width="2" stroke-miterlimit="10"/>
<path d="M45.3173 206.244C45.3089 205.533 45.1486 204.832 44.847 204.188C44.5454 203.544 44.1095 202.972 43.5687 202.511C42.4419 201.505 36.5016 199.007 35.9382 201.097C35.3262 203.371 41.4024 207.843 45.3173 206.244Z" fill="#6C5CE7" stroke="#263238" stroke-miterlimit="10"/>
<path d="M45.3173 206.244L39.6636 202.721" stroke="#263238" stroke-width="0.5" stroke-miterlimit="10"/>
<path d="M44.3847 172.734L39.989 168.088" stroke="#263238" stroke-width="2" stroke-miterlimit="10"/>
<path d="M41.5238 169.881C41.5155 169.17 41.3551 168.469 41.0535 167.826C40.7519 167.182 40.3161 166.61 39.7753 166.149C38.6484 165.143 32.7081 162.645 32.1447 164.735C31.5327 167.009 37.609 171.48 41.5238 169.881Z" fill="#6C5CE7" stroke="#263238" stroke-miterlimit="10"/>
<path d="M41.5238 169.881L35.8701 166.357" stroke="#263238" stroke-width="0.5" stroke-miterlimit="10"/>
<path d="M45.2491 183.329L41.2905 179.057" stroke="#263238" stroke-width="2" stroke-miterlimit="10"/>
<path d="M42.6264 180.452C42.618 179.741 42.4576 179.04 42.156 178.396C41.8544 177.752 41.4186 177.18 40.8778 176.719C39.751 175.713 33.8107 173.215 33.2472 175.305C32.6352 177.579 38.7115 182.051 42.6264 180.452Z" fill="#6C5CE7" stroke="#263238" stroke-miterlimit="10"/>
<path d="M42.6264 180.452L36.9727 176.929" stroke="#263238" stroke-width="0.5" stroke-miterlimit="10"/>
<path d="M42.6458 155.574L38.3958 151.316" stroke="#263238" stroke-width="2" stroke-miterlimit="10"/>
<path d="M39.7314 152.71C39.723 152 39.5627 151.299 39.261 150.655C38.9594 150.011 38.5236 149.439 37.9828 148.978C36.856 147.972 30.9205 145.474 30.3571 147.564C29.7451 149.838 35.8214 154.309 39.7314 152.71Z" fill="#6C5CE7" stroke="#263238" stroke-miterlimit="10"/>
<path d="M39.7316 152.711L34.0828 149.188" stroke="#263238" stroke-width="0.5" stroke-miterlimit="10"/>
<path d="M40.6398 138.34L36.5986 134.073" stroke="#263238" stroke-width="2" stroke-miterlimit="10"/>
<path d="M37.9344 135.463C37.9256 134.753 37.7651 134.052 37.4635 133.41C37.1619 132.767 36.7262 132.196 36.1858 131.735C35.0589 130.734 29.1429 128.226 28.5552 130.321C27.9432 132.595 34.0001 137.052 37.9344 135.463Z" fill="#6C5CE7" stroke="#263238" stroke-miterlimit="10"/>
<path d="M37.9345 135.463L32.2808 131.939" stroke="#263238" stroke-width="0.5" stroke-miterlimit="10"/>
<path d="M46.5364 192.67L49.8781 187.222" stroke="#263238" stroke-width="2" stroke-miterlimit="10"/>
<path d="M48.8581 188.854C48.7194 188.158 48.7317 187.439 48.8943 186.747C49.0568 186.056 49.3658 185.407 49.8003 184.845C50.6941 183.625 55.9883 179.956 56.9695 181.885C58.0381 183.985 53.0158 189.613 48.8581 188.854Z" fill="#6C5CE7" stroke="#263238" stroke-miterlimit="10"/>
<path d="M48.8582 188.855L53.9436 183.99" stroke="#263238" stroke-width="0.5" stroke-miterlimit="10"/>
<path d="M43.6318 164.856L46.9735 159.403" stroke="#263238" stroke-width="2" stroke-miterlimit="10"/>
<path d="M45.9535 161.041C45.8164 160.344 45.8296 159.626 45.9921 158.934C46.1546 158.243 46.4627 157.594 46.8958 157.031C47.7944 155.812 53.0838 152.142 54.0698 154.072C55.1384 156.171 50.1161 161.799 45.9535 161.041Z" fill="#6C5CE7" stroke="#263238" stroke-miterlimit="10"/>
<path d="M45.9536 161.041L51.0439 156.176" stroke="#263238" stroke-width="0.5" stroke-miterlimit="10"/>
<path d="M42.3591 152.634L45.7008 147.181" stroke="#263238" stroke-width="2" stroke-miterlimit="10"/>
<path d="M44.6858 148.818C44.5493 148.125 44.5624 147.41 44.724 146.722C44.8857 146.034 45.1922 145.388 45.6232 144.828C46.517 143.608 51.8113 139.934 52.7924 141.868C53.861 143.949 48.8387 149.576 44.6858 148.818Z" fill="#6C5CE7" stroke="#263238" stroke-miterlimit="10"/>
<path d="M44.6809 148.818L49.7712 143.953" stroke="#263238" stroke-width="0.5" stroke-miterlimit="10"/>
<path d="M40.4893 134.715L43.831 129.262" stroke="#263238" stroke-width="2" stroke-miterlimit="10"/>
<path d="M42.811 130.899C42.6739 130.202 42.687 129.484 42.8495 128.792C43.012 128.101 43.3201 127.452 43.7533 126.889C44.647 125.669 49.9413 121.995 50.9273 123.925C51.9958 126.029 46.9687 131.652 42.811 130.899Z" fill="#6C5CE7" stroke="#263238" stroke-miterlimit="10"/>
<path d="M42.811 130.899L47.9013 126.029" stroke="#263238" stroke-width="0.5" stroke-miterlimit="10"/>
<path d="M39.0612 123.255C38.9225 122.558 38.9348 121.839 39.0974 121.148C39.2599 120.456 39.5689 119.807 40.0035 119.245C40.8972 118.025 46.1915 114.356 47.1726 116.286C48.2412 118.385 43.2286 124.013 39.0612 123.255Z" fill="#6C5CE7" stroke="#263238" stroke-miterlimit="10"/>
<path d="M39.0613 123.255L44.1516 118.39" stroke="#263238" stroke-width="0.5" stroke-miterlimit="10"/>
<path d="M39.3429 123.444C38.636 123.509 37.9234 123.421 37.2531 123.188C36.5829 122.954 35.9705 122.579 35.4572 122.088C34.34 121.068 31.246 115.415 33.2666 114.643C35.4572 113.816 40.5426 119.405 39.3429 123.444Z" fill="#6C5CE7" stroke="#263238" stroke-miterlimit="10"/>
<path d="M39.3574 123.463L35.054 117.894" stroke="#263238" stroke-width="0.5" stroke-miterlimit="10"/>
<path d="M64.7119 136.766L56.8044 216.713" stroke="#263238" stroke-width="2" stroke-miterlimit="10"/>
<path d="M57.2025 211.983L53.856 206.53" stroke="#263238" stroke-width="2" stroke-miterlimit="10"/>
<path d="M54.8858 208.168C55.0245 207.471 55.0122 206.753 54.8496 206.061C54.6871 205.369 54.3781 204.721 53.9435 204.159C53.0353 202.939 47.741 199.26 46.7598 201.204C45.6913 203.303 50.7184 208.926 54.8858 208.168Z" fill="#6C5CE7" stroke="#263238" stroke-miterlimit="10"/>
<path d="M54.876 208.169L50.0723 203.557" stroke="#263238" stroke-width="0.5" stroke-miterlimit="10"/>
<path d="M59.879 186.186L56.5325 180.738" stroke="#263238" stroke-width="2" stroke-miterlimit="10"/>
<path d="M57.5524 182.376C57.6896 181.678 57.6765 180.959 57.514 180.267C57.3515 179.575 57.0434 178.925 56.6101 178.362C55.7115 177.147 50.4172 173.477 49.4361 175.407C48.3675 177.506 53.3947 183.134 57.5524 182.376Z" fill="#6C5CE7" stroke="#263238" stroke-miterlimit="10"/>
<path d="M57.5522 182.377L52.7485 177.76" stroke="#263238" stroke-width="0.5" stroke-miterlimit="10"/>
<path d="M58.7811 196.757L55.4346 191.309" stroke="#263238" stroke-width="2" stroke-miterlimit="10"/>
<path d="M56.4547 192.942C56.5935 192.245 56.5812 191.525 56.4187 190.833C56.2561 190.14 55.9471 189.491 55.5124 188.928C54.6139 187.713 49.3196 184.044 48.3384 185.973C47.2699 188.082 52.297 193.705 56.4547 192.942Z" fill="#6C5CE7" stroke="#263238" stroke-miterlimit="10"/>
<path d="M56.4546 192.947L51.6509 188.33" stroke="#263238" stroke-width="0.5" stroke-miterlimit="10"/>
<path d="M61.6567 169.016L58.3149 163.568" stroke="#263238" stroke-width="2" stroke-miterlimit="10"/>
<path d="M59.3348 165.202C59.4686 164.503 59.451 163.783 59.2835 163.092C59.1159 162.4 58.8022 161.752 58.3634 161.192C57.4697 159.972 52.1706 156.308 51.1894 158.237C50.15 160.337 55.1723 165.965 59.3348 165.202Z" fill="#6C5CE7" stroke="#263238" stroke-miterlimit="10"/>
<path d="M59.3349 165.201L54.5264 160.589" stroke="#263238" stroke-width="0.5" stroke-miterlimit="10"/>
<path d="M63.444 151.768L60.1023 146.32" stroke="#263238" stroke-width="2" stroke-miterlimit="10"/>
<path d="M61.1223 147.958C61.256 147.259 61.2385 146.539 61.071 145.848C60.9034 145.156 60.5897 144.509 60.1509 143.948C59.2572 142.729 53.9629 139.059 52.9818 140.989C51.9375 143.093 56.9646 148.716 61.1223 147.958Z" fill="#6C5CE7" stroke="#263238" stroke-miterlimit="10"/>
<path d="M61.1223 147.958L56.3137 143.346" stroke="#263238" stroke-width="0.5" stroke-miterlimit="10"/>
<path d="M57.7661 205.71L62.157 201.063" stroke="#263238" stroke-width="2" stroke-miterlimit="10"/>
<path d="M60.8213 202.453C60.83 201.743 60.9906 201.042 61.2922 200.399C61.5938 199.757 62.0294 199.186 62.5699 198.725C63.6967 197.714 69.6321 195.211 70.1956 197.306C70.8124 199.58 64.7361 204.052 60.8213 202.453Z" fill="#6C5CE7" stroke="#263238" stroke-miterlimit="10"/>
<path d="M60.8213 202.453L66.8053 198.74" stroke="#263238" stroke-width="0.5" stroke-miterlimit="10"/>
<path d="M60.6511 177.89L65.042 173.244" stroke="#263238" stroke-width="2" stroke-miterlimit="10"/>
<path d="M63.7063 174.639C63.7147 173.928 63.875 173.227 64.1766 172.584C64.4782 171.94 64.9141 171.368 65.4549 170.907C66.5817 169.901 72.5172 167.398 73.0806 169.488C73.6974 171.762 67.6212 176.233 63.7063 174.639Z" fill="#6C5CE7" stroke="#263238" stroke-miterlimit="10"/>
<path d="M63.7063 174.639L69.6903 170.926" stroke="#263238" stroke-width="0.5" stroke-miterlimit="10"/>
<path d="M61.9189 165.668L66.3098 161.021" stroke="#263238" stroke-width="2" stroke-miterlimit="10"/>
<path d="M64.9741 162.412C64.9829 161.702 65.1434 161.001 65.445 160.358C65.7466 159.716 66.1823 159.145 66.7227 158.684C67.8495 157.673 73.785 155.17 74.3484 157.265C74.9653 159.539 68.889 164.011 64.9741 162.412Z" fill="#6C5CE7" stroke="#263238" stroke-miterlimit="10"/>
<path d="M64.9741 162.411L70.9581 158.698" stroke="#263238" stroke-width="0.5" stroke-miterlimit="10"/>
<path d="M63.7744 147.749L68.1701 143.103" stroke="#263238" stroke-width="2" stroke-miterlimit="10"/>
<path d="M66.8345 144.493C66.8428 143.782 67.0032 143.081 67.3048 142.437C67.6064 141.793 68.0422 141.222 68.583 140.76C69.7099 139.754 75.6453 137.251 76.2088 139.341C76.8208 141.616 70.7493 146.092 66.8345 144.493Z" fill="#6C5CE7" stroke="#263238" stroke-miterlimit="10"/>
<path d="M66.8345 144.492L72.8136 140.779" stroke="#263238" stroke-width="0.5" stroke-miterlimit="10"/>
<path d="M64.7361 136.241C64.7445 135.53 64.9049 134.83 65.2066 134.187C65.5082 133.544 65.944 132.973 66.4847 132.513C67.6115 131.502 73.5469 128.999 74.1104 131.089C74.7224 133.368 68.6509 137.84 64.7361 136.241Z" fill="#6C5CE7" stroke="#263238" stroke-miterlimit="10"/>
<path d="M64.7361 136.24L70.7152 132.527" stroke="#263238" stroke-width="0.5" stroke-miterlimit="10"/>
<path d="M64.9789 136.507C64.2739 136.425 63.5947 136.193 62.9871 135.826C62.3796 135.458 61.858 134.965 61.4575 134.379C60.5735 133.149 58.7083 126.982 60.8454 126.641C63.172 126.267 66.98 132.78 64.9789 136.507Z" fill="#6C5CE7" stroke="#263238" stroke-miterlimit="10"/>
<path d="M64.9789 136.507L61.9189 130.165" stroke="#263238" stroke-width="0.5" stroke-miterlimit="10"/>
<path d="M53.6619 99.1777V216.712" stroke="#263238" stroke-width="2" stroke-miterlimit="10"/>
<path d="M53.759 199.042L49.8684 193.963" stroke="#263238" stroke-width="2" stroke-miterlimit="10"/>
<path d="M51.0534 195.489C51.117 194.782 51.0289 194.069 50.7953 193.399C50.5616 192.728 50.1876 192.115 49.6983 191.601C48.6832 190.478 43.0343 187.378 42.2572 189.399C41.412 191.596 46.9929 196.67 51.0534 195.489Z" fill="#6C5CE7" stroke="#263238" stroke-miterlimit="10"/>
<path d="M51.0535 195.489L45.7981 191.396" stroke="#263238" stroke-width="0.5" stroke-miterlimit="10"/>
<path d="M53.759 176.953L49.8684 171.874" stroke="#263238" stroke-width="2" stroke-miterlimit="10"/>
<path d="M51.0534 173.4C51.117 172.693 51.0289 171.981 50.7953 171.31C50.5616 170.64 50.1876 170.027 49.6983 169.512C48.6832 168.395 43.0343 165.289 42.2572 167.311C41.412 169.508 46.9929 174.581 51.0534 173.4Z" fill="#6C5CE7" stroke="#263238" stroke-miterlimit="10"/>
<path d="M51.0535 173.4L45.7981 169.308" stroke="#263238" stroke-width="0.5" stroke-miterlimit="10"/>
<path d="M53.759 151.02L49.8684 145.941" stroke="#263238" stroke-width="2" stroke-miterlimit="10"/>
<path d="M51.0534 147.467C51.117 146.759 51.0289 146.047 50.7953 145.376C50.5616 144.706 50.1876 144.093 49.6983 143.579C48.6832 142.461 43.0343 139.355 42.2572 141.382C41.412 143.574 46.9929 148.648 51.0534 147.467Z" fill="#6C5CE7" stroke="#263238" stroke-miterlimit="10"/>
<path d="M51.0535 147.467L45.7981 143.375" stroke="#263238" stroke-width="0.5" stroke-miterlimit="10"/>
<path d="M53.759 133.757L49.8684 128.679" stroke="#263238" stroke-width="2" stroke-miterlimit="10"/>
<path d="M51.0534 130.204C51.117 129.497 51.0289 128.784 50.7953 128.114C50.5616 127.443 50.1876 126.83 49.6983 126.316C48.6832 125.198 43.0343 122.093 42.2572 124.115C41.412 126.311 46.9929 131.385 51.0534 130.204Z" fill="#6C5CE7" stroke="#263238" stroke-miterlimit="10"/>
<path d="M51.0535 130.204L45.7981 126.112" stroke="#263238" stroke-width="0.5" stroke-miterlimit="10"/>
<path d="M53.759 116.417L49.8684 111.343" stroke="#263238" stroke-width="2" stroke-miterlimit="10"/>
<path d="M51.0534 112.864C51.117 112.157 51.0289 111.444 50.7953 110.774C50.5616 110.103 50.1876 109.49 49.6983 108.976C48.6832 107.858 43.0343 104.757 42.2572 106.779C41.412 108.971 46.9929 114.05 51.0534 112.864Z" fill="#6C5CE7" stroke="#263238" stroke-miterlimit="10"/>
<path d="M51.0535 112.864L45.7981 108.771" stroke="#263238" stroke-width="0.5" stroke-miterlimit="10"/>
<path d="M53.6714 205.782L57.562 200.708" stroke="#263238" stroke-width="2" stroke-miterlimit="10"/>
<path d="M56.3768 202.229C56.3111 201.522 56.3976 200.809 56.6305 200.139C56.8634 199.468 57.2374 198.855 57.7271 198.341C58.7471 197.218 64.3911 194.118 65.1682 196.14C66.0134 198.341 60.4325 203.415 56.3768 202.229Z" fill="#6C5CE7" stroke="#263238" stroke-miterlimit="10"/>
<path d="M56.377 202.23L61.9432 197.919" stroke="#263238" stroke-width="0.5" stroke-miterlimit="10"/>
<path d="M53.6714 170.654L57.562 165.58" stroke="#263238" stroke-width="2" stroke-miterlimit="10"/>
<path d="M56.3769 167.101C56.3118 166.394 56.3986 165.682 56.6315 165.011C56.8644 164.34 57.238 163.727 57.7272 163.213C58.7472 162.095 64.3912 158.995 65.1684 161.017C66.0135 163.208 60.4327 168.287 56.3769 167.101Z" fill="#6C5CE7" stroke="#263238" stroke-miterlimit="10"/>
<path d="M56.377 167.102L61.9432 162.791" stroke="#263238" stroke-width="0.5" stroke-miterlimit="10"/>
<path d="M53.6714 153.313L57.562 148.239" stroke="#263238" stroke-width="2" stroke-miterlimit="10"/>
<path d="M56.3768 149.761C56.3111 149.054 56.3976 148.342 56.6305 147.671C56.8634 147 57.2374 146.387 57.7271 145.873C58.7471 144.751 64.3911 141.65 65.1682 143.672C66.0134 145.873 60.4325 150.947 56.3768 149.761Z" fill="#6C5CE7" stroke="#263238" stroke-miterlimit="10"/>
<path d="M56.377 149.761L61.9432 145.45" stroke="#263238" stroke-width="0.5" stroke-miterlimit="10"/>
<path d="M53.6714 130.399L57.562 125.325" stroke="#263238" stroke-width="2" stroke-miterlimit="10"/>
<path d="M56.3769 126.846C56.3118 126.139 56.3986 125.427 56.6315 124.756C56.8644 124.086 57.238 123.473 57.7272 122.958C58.7472 121.841 64.3912 118.74 65.1684 120.762C66.0135 122.958 60.4327 128.032 56.3769 126.846Z" fill="#6C5CE7" stroke="#263238" stroke-miterlimit="10"/>
<path d="M56.377 126.846L61.9432 122.535" stroke="#263238" stroke-width="0.5" stroke-miterlimit="10"/>
<path d="M53.6714 112.382L57.562 107.304" stroke="#263238" stroke-width="2" stroke-miterlimit="10"/>
<path d="M56.3769 108.83C56.3118 108.123 56.3986 107.41 56.6315 106.74C56.8644 106.069 57.238 105.456 57.7272 104.942C58.7472 103.824 64.3912 100.719 65.1684 102.74C66.0135 104.937 60.4327 110.011 56.3769 108.83Z" fill="#6C5CE7" stroke="#263238" stroke-miterlimit="10"/>
<path d="M56.377 108.83L61.9432 104.515" stroke="#263238" stroke-width="0.5" stroke-miterlimit="10"/>
<path d="M53.4286 100.836C53.3628 100.129 53.4493 99.4157 53.6823 98.745C53.9152 98.0743 54.2891 97.4614 54.7789 96.9476C55.7989 95.8249 61.4429 92.7242 62.22 94.746C63.0749 96.9476 57.494 102.021 53.4286 100.836Z" fill="#6C5CE7" stroke="#263238" stroke-miterlimit="10"/>
<path d="M53.4385 100.835L59.0048 96.5244" stroke="#263238" stroke-width="0.5" stroke-miterlimit="10"/>
<path d="M53.7104 101.088C53.0004 101.078 52.3006 100.916 51.6581 100.614C51.0156 100.311 50.4452 99.8747 49.985 99.3336C48.9795 98.2012 46.4878 92.2623 48.5764 91.6985C50.8544 91.0764 55.3133 97.1611 53.7104 101.088Z" fill="#6C5CE7" stroke="#263238" stroke-miterlimit="10"/>
<path d="M53.7104 101.078L50.0093 95.0859" stroke="#263238" stroke-width="0.5" stroke-miterlimit="10"/>
<path d="M120.996 216.78C119.272 211.482 115.056 198.394 115.396 197.889C115.814 197.257 115.814 193.884 115.814 193.884C115.814 193.884 102.117 195.571 92.4266 187.348C82.7366 179.124 71.1426 169.429 71.1426 169.429C71.1426 169.429 69.4572 174.473 67.7717 179.761C66.3486 184.218 63.5655 209.179 62.7397 216.78H120.996Z" fill="#263238" stroke="#263238" stroke-linecap="round" stroke-linejoin="round"/>
<path d="M87.0984 202.093C89.5561 204.367 93.8061 208.377 96.9341 211.745" stroke="#6E6E6E" stroke-linecap="round" stroke-linejoin="round"/>
<path d="M85.1262 200.285L85.8888 200.98" stroke="#6E6E6E" stroke-linecap="round" stroke-linejoin="round"/>
<path d="M132.95 111.294C132.95 111.294 118.544 117.34 111.962 121.792C105.381 126.243 92.0478 139.229 88.1329 144.391C84.2181 149.552 74.6155 160.429 72.1287 163.427C69.6418 166.426 68.0389 168.234 68.7287 173.215C69.4184 178.197 73.7072 186.206 78.3312 190.298C82.9552 194.39 92.1984 199.503 104.118 199.017C111.049 198.735 115.144 197.238 118.879 193.501C122.614 189.764 128.306 179.975 133.285 175.174C138.264 170.372 146.798 160.594 146.798 160.594C146.798 160.594 169.563 168.778 171.695 168.778C173.827 168.778 184.504 162.727 184.678 160.949C184.853 159.17 161.204 143.511 159.072 139.594C156.939 135.677 152.514 128.547 152.514 128.547C152.514 128.547 141.829 113.068 132.95 111.294Z" fill="#7D7D7D" stroke="#263238" stroke-linecap="round" stroke-linejoin="round"/>
<path d="M159.091 139.579C156.954 135.667 152.51 128.547 152.51 128.547C150.276 125.403 147.822 122.423 145.166 119.629C144.286 119.773 143.448 120.104 142.708 120.601C137.19 124.669 139.794 134.836 140.381 142.957C140.785 147.962 142.277 152.819 144.753 157.187L136.16 172.302C140.993 167.267 146.846 160.574 146.846 160.574C146.846 160.574 169.612 168.759 171.744 168.759C173.876 168.759 184.552 162.708 184.727 160.929C184.902 159.15 161.223 143.496 159.091 139.579Z" fill="#263238" stroke="#263238" stroke-linecap="round" stroke-linejoin="round"/>
<path d="M126.354 115.449C126.354 115.449 122.852 113.7 120.399 122.112C117.946 130.525 124.251 152.614 127.408 152.964C130.565 153.314 137.219 136.838 138.268 131.93C139.318 127.021 136.165 112.295 126.354 115.449Z" fill="#6C5CE7" stroke="#263238" stroke-linecap="round" stroke-linejoin="round"/>
<path d="M137.214 133.708C137.214 133.708 135.398 135.254 132.77 137.266C129.749 139.579 129.19 143.885 127.058 141.392C124.926 138.899 121.744 121.432 123.702 117.869C125.659 114.307 132.93 109.505 133.479 109.15C134.028 108.796 138.992 115.381 139.351 120.183C139.711 124.984 137.214 133.708 137.214 133.708Z" fill="white" stroke="#263238" stroke-linecap="round" stroke-linejoin="round"/>
<path d="M133.479 109.151C132.95 109.505 125.654 114.312 123.702 117.87C122.93 119.269 122.959 122.827 123.401 126.773C124.1 127.249 124.858 127.756 125.674 128.294C132.265 132.644 137.214 133.708 137.214 133.708L137.579 114.691C136 111.527 133.824 108.922 133.479 109.151Z" fill="#263238" stroke="#263238" stroke-linecap="round" stroke-linejoin="round"/>
<path d="M165.143 113.777L157.673 126.588C155.181 130.86 152.33 135.822 147.356 136.911C142.382 138 137.579 138.69 134.907 134.418C132.236 130.146 129.394 124.455 131.172 116.625C132.95 108.796 135.976 106.482 139.711 103.634C143.446 100.786 147.172 99.0077 151.441 100.602C155.71 102.196 165.143 113.777 165.143 113.777Z" fill="white" stroke="#263238" stroke-linecap="round" stroke-linejoin="round"/>
<path d="M150.023 118.175C149.649 118.836 149.022 119.191 148.629 118.962C148.235 118.734 148.216 118.02 148.59 117.359C148.964 116.698 149.59 116.348 149.989 116.571C150.387 116.795 150.402 117.514 150.023 118.175Z" fill="#263238" stroke="#263238" stroke-linecap="round" stroke-linejoin="round"/>
<path d="M157.75 121.835C157.376 122.496 156.75 122.851 156.356 122.627C155.963 122.404 155.943 121.68 156.317 121.019C156.691 120.358 157.318 120.008 157.716 120.232C158.114 120.455 158.129 121.179 157.75 121.835Z" fill="#263238" stroke="#263238" stroke-linecap="round" stroke-linejoin="round"/>
<path d="M147.852 112.844C148.747 112.683 149.667 112.708 150.553 112.918C151.438 113.128 152.271 113.518 153 114.064" stroke="#263238" stroke-width="2" stroke-linecap="round" stroke-linejoin="round"/>
<path d="M157.619 116.693C157.619 116.693 161.238 116.883 161.082 119.512" stroke="#263238" stroke-width="2" stroke-linecap="round" stroke-linejoin="round"/>
<path d="M143.898 125.98C143.898 125.98 144.869 129.076 149.571 130.476" stroke="#263238" stroke-linecap="round" stroke-linejoin="round"/>
<path d="M156.468 119.069L155.37 121.64C155.37 121.64 152.942 127.72 152.51 128.532C152.077 129.343 148.765 127.696 147.852 126.228" stroke="#263238" stroke-linecap="round" stroke-linejoin="round"/>
<path d="M135.791 112.353C135.791 112.353 136.326 112.353 137.734 111.464C139.143 110.575 140.76 112.178 144.136 110.929C147.512 109.68 142.713 104.879 147.337 104.524C151.961 104.169 154.452 111.644 160.14 114.312C165.828 116.98 169.748 115.916 172.234 109.505C174.721 103.095 171.171 99.3625 168.324 96.5194C165.478 93.6763 168.324 93.1174 167.436 88.6899C166.547 84.2625 162.093 82.4594 157.833 84.0632C153.573 85.667 154.627 86.9112 152.315 86.9112C150.003 86.9112 147.871 83.8834 141.469 85.1276C135.068 86.3717 130.089 93.1368 129.375 99.5423C128.661 105.948 130.798 112.708 131.687 113.068C132.576 113.427 135.791 112.353 135.791 112.353Z" fill="#263238" stroke="#263238" stroke-linecap="round" stroke-linejoin="round"/>
<path d="M135.801 114.696C135.801 114.696 137.559 109.233 135.694 107.615C133.829 105.997 130.735 107.032 130.099 109.447C129.462 111.863 128.457 116.198 129.511 117.306C130.565 118.414 132.624 118.079 132.624 118.079" fill="white"/>
<path d="M135.801 114.696C135.801 114.696 137.559 109.233 135.694 107.615C133.829 105.997 130.735 107.032 130.099 109.447C129.462 111.863 128.457 116.198 129.511 117.306C130.565 118.414 132.624 118.079 132.624 118.079" stroke="#263238" stroke-linecap="round" stroke-linejoin="round"/>
<path d="M194.771 216.78L187.126 188.675C186.562 186.599 185.331 184.767 183.623 183.461C181.915 182.155 179.824 181.448 177.674 181.448H147.089C144.646 181.448 142.291 182.36 140.485 184.008C138.68 185.655 137.555 187.917 137.331 190.352L134.902 216.78H194.771Z" fill="#263238" stroke="#263238" stroke-linecap="round" stroke-linejoin="round"/>
<path d="M172.963 159.165C172.963 159.165 150.018 169.487 148.954 170.552C147.89 171.616 141.304 216.78 141.304 216.78H220.446C220.446 216.78 208.172 169.128 206.574 168.063C204.976 166.999 183.989 158.275 183.454 158.275C182.92 158.275 172.963 159.165 172.963 159.165Z" fill="#6C5CE7" stroke="#263238" stroke-linecap="round" stroke-linejoin="round"/>
<path d="M200.6 161.108C200.6 161.108 202.868 161.215 203.281 161.833C203.694 162.45 204.738 166.27 204.311 167.179C203.884 168.087 202.97 167.281 202.368 166.148C201.766 165.016 201.232 163.879 201.232 163.879L200.095 163.052L200.6 161.108Z" fill="white" stroke="#263238" stroke-linecap="round" stroke-linejoin="round"/>
<path d="M197.686 158.839C197.686 158.839 200.576 159.15 200.989 160.18C201.402 161.211 201.295 163.898 200.882 165.444C200.469 166.989 199.75 168.024 199.128 167.509C198.507 166.994 197.273 161.522 197.273 160.904C197.273 160.287 197.375 158.839 197.686 158.839Z" fill="white" stroke="#263238" stroke-linecap="round" stroke-linejoin="round"/>
<path d="M195.626 157.396C195.626 157.396 198.307 158.12 198.822 158.854C199.337 159.587 199.337 163.602 198.822 165.147C198.307 166.693 197.069 167.091 196.447 166.698C195.825 166.304 195.213 163.704 195.213 162.464C195.213 161.225 195.626 157.396 195.626 157.396Z" fill="white" stroke="#263238" stroke-linecap="round" stroke-linejoin="round"/>
<path d="M192.217 156.949C192.217 156.949 194.942 155.899 195.777 156.949C196.612 157.999 196.195 165.959 195.568 166.8C194.942 167.641 193.052 166.8 193.052 165.75C193.052 164.701 192.343 161.838 192.343 161.838L189.094 160.516C189.094 160.516 190.75 156.949 192.217 156.949Z" fill="white" stroke="#263238" stroke-linecap="round" stroke-linejoin="round"/>
<path d="M192.323 161.833L192.017 159.359" stroke="#263238" stroke-linecap="round" stroke-linejoin="round"/>
<path d="M171.685 159.952C171.685 159.952 168.222 160.643 167.994 163.418C167.766 166.193 168.455 179.81 170.301 181.196C172.147 182.581 181.171 176.112 181.171 176.112C181.171 176.112 188.297 179.82 189.914 178.654C191.532 177.487 190.143 165.493 186.684 160.876C183.226 156.259 171.685 159.952 171.685 159.952Z" fill="white" stroke="#263238" stroke-linecap="round" stroke-linejoin="round"/>
<path d="M157.537 201.889L161.043 183.31" stroke="#263238" stroke-linecap="round" stroke-linejoin="round"/>
<path d="M200.634 179.801L204.84 195.032L202.038 216.265" stroke="#263238" stroke-linecap="round" stroke-linejoin="round"/>
<path d="M161.597 156.968C167.638 156.968 172.536 152.307 172.536 146.558C172.536 140.808 167.638 136.147 161.597 136.147C155.556 136.147 150.659 140.808 150.659 146.558C150.659 152.307 155.556 156.968 161.597 156.968Z" fill="#263238" stroke="#263238" stroke-linecap="round" stroke-linejoin="round"/>
<path d="M165.692 156.006C166.238 155.791 166.762 155.523 167.256 155.204" stroke="#6E6E6E" stroke-linecap="round" stroke-linejoin="round"/>
<path d="M152.029 141.79C152.029 141.79 149.445 148.788 153.704 153.503C156.701 156.827 160.83 157.206 163.963 156.501" stroke="#6E6E6E" stroke-linecap="round" stroke-linejoin="round"/>
<path d="M170.826 153.294C170.826 153.294 170.651 160.234 170.651 162.193C170.651 164.151 176.518 172.885 180.074 173.4C183.629 173.915 185.052 167.349 185.232 164.326C185.412 161.303 186.121 157.036 186.121 157.036C186.121 157.036 175.829 159.165 170.826 153.294Z" fill="white" stroke="#263238" stroke-linecap="round" stroke-linejoin="round"/>
<path d="M183.809 159.976L182.002 157.406C178.563 157.435 173.745 156.759 170.831 153.294C170.831 153.294 170.719 157.775 170.67 160.55C178.928 162.295 183.809 159.976 183.809 159.976Z" fill="#263238" stroke="#263238" stroke-linecap="round" stroke-linejoin="round"/>
<path d="M167.27 148.133C167.27 148.133 169.403 154.004 172.429 156.852C175.455 159.7 181.322 163.437 185.412 161.299C189.501 159.16 192.168 156.317 193.237 149.737C194.305 143.156 193.237 128.027 193.237 128.027C193.237 128.027 192.702 124.824 187.01 123.755C181.317 122.686 171.54 124.645 169.582 128.562C167.625 132.479 167.086 137.635 167.086 140.838C167.086 144.041 167.27 148.133 167.27 148.133Z" fill="white" stroke="#263238" stroke-linecap="round" stroke-linejoin="round"/>
<path d="M180.584 143.486C181.04 143.486 181.409 142.87 181.409 142.111C181.409 141.351 181.04 140.735 180.584 140.735C180.128 140.735 179.758 141.351 179.758 142.111C179.758 142.87 180.128 143.486 180.584 143.486Z" fill="#263238" stroke="#263238" stroke-linecap="round" stroke-linejoin="round"/>
<path d="M189.939 141.464C189.939 142.227 189.569 142.844 189.113 142.844C188.656 142.844 188.287 142.227 188.287 141.464C188.287 140.701 188.656 140.089 189.113 140.089C189.569 140.089 189.939 140.706 189.939 141.464Z" fill="#263238" stroke="#263238" stroke-linecap="round" stroke-linejoin="round"/>
<path d="M178.107 139.083C178.107 139.083 178.84 136.697 181.958 137.061" stroke="#263238" stroke-linecap="round" stroke-linejoin="round"/>
<path d="M187.277 137.052C187.277 137.052 189.113 134.486 191.677 137.786" stroke="#263238" stroke-linecap="round" stroke-linejoin="round"/>
<path d="M187.277 142.397C187.277 142.397 186.543 144.414 187.277 145.313C188.01 146.213 188.379 148.069 187.092 148.434C186.139 148.67 185.16 148.794 184.178 148.803" stroke="#263238" stroke-linecap="round" stroke-linejoin="round"/>
<path d="M179.943 151.924C179.943 151.924 182.327 154.13 187.092 153.027" stroke="#263238" stroke-linecap="round" stroke-linejoin="round"/>
<path d="M190.211 127.706L193.878 136.328C193.878 136.328 198.099 133.028 197.365 127.521C196.632 122.015 193.514 121.65 193.514 121.65L190.211 127.706Z" fill="#263238" stroke="#263238" stroke-linecap="round" stroke-linejoin="round"/>
<path d="M166.202 139.769C166.202 139.769 166.892 142.199 169.024 140.595C171.156 138.991 173.492 133.898 173.492 133.898C173.492 133.898 170.651 137.635 172.429 138.704C174.206 139.773 181.657 137.81 189.856 129.806C198.055 121.801 196.438 117.17 192.523 113.967C188.608 110.764 179.719 115.911 179.719 115.911C179.719 115.911 173.492 113.967 165.672 118.579C157.852 123.191 159.266 134.063 160.514 136.017C161.762 137.97 161.937 141.547 166.202 139.769Z" fill="#263238" stroke="#263238" stroke-linecap="round" stroke-linejoin="round"/>
<path d="M168.14 141.713C168.14 141.713 166.717 137.261 164.405 137.441C162.093 137.621 160.669 144.731 163.516 147.938C166.362 151.146 167.96 148.473 167.96 148.473" fill="white"/>
<path d="M168.14 141.713C168.14 141.713 166.717 137.261 164.405 137.441C162.093 137.621 160.669 144.731 163.516 147.938C166.362 151.146 167.96 148.473 167.96 148.473" stroke="#263238" stroke-linecap="round" stroke-linejoin="round"/>
<path d="M166.882 147.744C166.883 147.971 166.816 148.193 166.691 148.382C166.565 148.571 166.387 148.719 166.177 148.807C165.968 148.894 165.737 148.918 165.515 148.874C165.292 148.83 165.087 148.721 164.927 148.561C164.766 148.401 164.656 148.197 164.611 147.974C164.567 147.751 164.589 147.521 164.676 147.311C164.763 147.101 164.909 146.921 165.098 146.795C165.287 146.669 165.508 146.602 165.735 146.602C166.039 146.602 166.329 146.722 166.544 146.936C166.759 147.15 166.88 147.44 166.882 147.744Z" fill="#6C5CE7" stroke="#263238" stroke-linecap="round" stroke-linejoin="round"/>
<path d="M190.036 175.358L195.379 186.925C195.379 186.925 215.652 198.847 216.896 199.381C218.139 199.916 221.52 203.119 222.054 207.386C222.588 211.653 220.111 214.151 217.076 214.151C214.04 214.151 211.208 213.436 208.896 211.483C206.584 209.529 191.109 190.308 191.109 190.308C191.109 190.308 187.734 188.364 186.845 187.635C185.956 186.906 185.062 184.967 185.062 184.967C185.062 184.967 183.284 185.856 182.041 185.681C180.798 185.506 178.84 181.409 178.84 181.409C178.84 181.409 180.783 175.004 181.332 174.119C181.881 173.234 186.675 173.05 186.675 173.05L190.036 175.358Z" fill="white" stroke="#263238" stroke-linecap="round" stroke-linejoin="round"/>
<path d="M182.74 183.188L184.698 182.474L185.052 183.368V184.967" stroke="#263238" stroke-linecap="round" stroke-linejoin="round"/>
<path d="M171.54 185.166L175.984 171.641C175.984 171.641 181.142 169.697 182.566 169.327C183.989 168.958 188.253 172.729 189.147 172.885C190.041 173.04 190.565 175.198 190.036 175.378C189.506 175.558 187.724 174.663 187.724 174.663L182.381 175.558C182.381 175.558 180.783 183.917 179.005 185.875C177.546 187.346 175.936 188.659 174.202 189.793C174.202 189.793 156.954 210.438 155.71 212.382C154.467 214.326 148.425 217.898 144.15 215.405C139.876 212.912 142.208 206.866 143.441 204.713C144.675 202.56 171.54 185.166 171.54 185.166Z" fill="white" stroke="#263238" stroke-linecap="round" stroke-linejoin="round"/>
<path d="M189.147 172.865L184.571 171.874L181.327 172.598" stroke="#263238" stroke-linecap="round" stroke-linejoin="round"/>
<path d="M179.394 171.344L184.212 170.436L185.655 170.615" stroke="#263238" stroke-linecap="round" stroke-linejoin="round"/>
<path d="M115.77 124.129C115.77 124.129 118.976 132.673 118.442 141.212C117.907 149.751 120.574 177.691 121.288 180.714C122.002 183.737 122.886 188.903 122.886 188.903C122.886 188.903 150.805 202.424 155.788 204.382C159.446 205.751 163.187 206.887 166.989 207.784C166.989 207.784 177.48 204.222 178.549 203.332C179.617 202.443 182.284 203.687 182.284 203.687C182.284 203.687 187.976 205.291 188.331 205.826C188.686 206.36 188.506 213.475 188.506 213.475C188.506 213.475 189.22 215.419 188.686 215.614C188.151 215.808 182.284 217.212 180.326 216.678C178.369 216.143 173.216 213.83 173.216 213.83C173.216 213.83 169.301 215.254 167.343 214.899C165.386 214.544 162.899 214.01 162.899 214.01C162.899 214.01 129.822 208.664 120.928 206.535C112.035 204.406 106.527 203.157 105.638 199.955C104.749 196.752 95.6761 157.425 95.3215 155.291" fill="#7D7D7D"/>
<path d="M115.77 124.129C115.77 124.129 118.976 132.673 118.442 141.212C117.907 149.751 120.574 177.691 121.288 180.714C122.002 183.737 122.886 188.903 122.886 188.903C122.886 188.903 150.805 202.424 155.788 204.382C159.446 205.751 163.187 206.887 166.989 207.784C166.989 207.784 177.48 204.222 178.549 203.332C179.617 202.443 182.284 203.687 182.284 203.687C182.284 203.687 187.976 205.291 188.331 205.826C188.686 206.36 188.506 213.475 188.506 213.475C188.506 213.475 189.22 215.419 188.686 215.614C188.151 215.808 182.284 217.212 180.326 216.678C178.369 216.143 173.216 213.83 173.216 213.83C173.216 213.83 169.301 215.254 167.343 214.899C165.386 214.544 162.899 214.01 162.899 214.01C162.899 214.01 129.822 208.664 120.928 206.535C112.035 204.406 106.527 203.157 105.638 199.955C104.749 196.752 95.6761 157.425 95.3215 155.291" stroke="#263238" stroke-linecap="round" stroke-linejoin="round"/>
<path d="M175.411 209.811H186.514C187.583 209.811 188.609 210.236 189.365 210.992C190.121 211.749 190.546 212.775 190.546 213.844V216.76H171.379V213.844C171.379 212.775 171.804 211.749 172.56 210.992C173.316 210.236 174.342 209.811 175.411 209.811Z" fill="#263238" stroke="#263238" stroke-linecap="round" stroke-linejoin="round"/>
<path d="M180.326 216.659C182.269 217.193 188.151 215.769 188.685 215.594C189.22 215.419 188.506 213.456 188.506 213.456C188.506 213.456 188.685 206.341 188.331 205.806C187.976 205.272 182.284 203.668 182.284 203.668C182.284 203.668 179.617 202.424 178.549 203.313C177.48 204.202 166.989 207.765 166.989 207.765C163.187 206.868 159.446 205.732 155.788 204.363C154.025 203.673 149.401 201.534 144.155 199.061C137.457 200.859 136.918 206.705 137.083 209.616C149.226 211.765 162.899 213.99 162.899 213.99C162.899 213.99 165.391 214.525 167.343 214.88C169.296 215.235 173.215 213.811 173.215 213.811C173.215 213.811 178.374 216.124 180.326 216.659Z" fill="white" stroke="#263238" stroke-linecap="round" stroke-linejoin="round"/>
<path d="M182.104 205.451C182.104 205.451 185.13 209.009 186.194 210.433C187.257 211.857 188.506 213.456 188.506 213.456" stroke="#263238" stroke-linecap="round" stroke-linejoin="round"/>
<path d="M177.66 206.516C177.66 206.516 182.284 211.322 183.527 212.212C184.771 213.101 186.373 216.124 186.373 216.124" stroke="#263238" stroke-linecap="round" stroke-linejoin="round"/>
<path d="M173.925 209.544C173.925 209.544 179.792 213.811 180.506 214.346C181.322 215.071 182.094 215.843 182.818 216.659" stroke="#263238" stroke-linecap="round" stroke-linejoin="round"/>
<path d="M148.172 200.961C146.904 200.373 145.554 199.741 144.155 199.08C137.457 200.878 136.918 206.725 137.083 209.636L141.901 210.482C142.494 205.175 146.059 202.249 148.172 200.961Z" fill="#6C5CE7" stroke="#263238" stroke-linecap="round" stroke-linejoin="round"/>
<path d="M202.786 213.626H275.089V216.756H199.935V216.455C199.942 215.703 200.246 214.984 200.78 214.454C201.313 213.925 202.034 213.627 202.786 213.626Z" fill="#263238" stroke="#263238" stroke-linecap="round" stroke-linejoin="round"/>
<path d="M275.089 213.626H229.364V216.78H275.089V213.626Z" fill="white" stroke="#263238" stroke-linecap="round" stroke-linejoin="round"/>
<path d="M280.082 178.129H234.357L229.364 213.359H275.089L280.082 178.129Z" fill="white" stroke="#263238" stroke-linecap="round" stroke-linejoin="round"/>
<path d="M275.089 213.354L279.461 182.42C273.549 187.022 265.03 194.133 255.277 202.224C247.831 208.426 241.594 211.667 237.029 213.354H275.089Z" fill="#263238" stroke="#263238" stroke-linecap="round" stroke-linejoin="round"/>
<path d="M255.821 201.525C258.24 201.525 260.202 199.878 260.202 197.846C260.202 195.814 258.24 194.167 255.821 194.167C253.401 194.167 251.44 195.814 251.44 197.846C251.44 199.878 253.401 201.525 255.821 201.525Z" fill="white" stroke="#263238" stroke-linecap="round" stroke-linejoin="round"/>
<path d="M293.371 216.78H297.67" stroke="#263238" stroke-linecap="round" stroke-linejoin="round"/>
<path d="M33.0286 216.78H289.971" stroke="#263238" stroke-linecap="round" stroke-linejoin="round"/>
<path d="M248.343 77.3849C249.259 72.9724 246.426 68.6527 242.016 67.7365C237.606 66.8203 233.289 69.6546 232.373 74.0671C231.458 78.4796 234.29 82.7994 238.7 83.7156C243.11 84.6318 247.427 81.7974 248.343 77.3849Z" fill="#6C5CE7" stroke="#263238" stroke-linecap="round" stroke-linejoin="round"/>
<path d="M240.113 74.7852V106.224" stroke="#263238" stroke-linecap="round" stroke-linejoin="round"/>
<path d="M240.113 79.4266L244.751 74.6152" stroke="#263238" stroke-linecap="round" stroke-linejoin="round"/>
<path d="M239.768 81.8322L237.106 79.1689" stroke="#263238" stroke-linecap="round" stroke-linejoin="round"/>
<path d="M230.838 90.9698C233.613 89.8106 234.923 86.6199 233.764 83.8433C232.606 81.0667 229.417 79.7555 226.642 80.9147C223.867 82.074 222.557 85.2646 223.715 88.0412C224.874 90.8178 228.063 92.129 230.838 90.9698Z" fill="#6C5CE7" stroke="#263238" stroke-linecap="round" stroke-linejoin="round"/>
<path d="M228.567 85.3027V106.298" stroke="#263238" stroke-linecap="round" stroke-linejoin="round"/>
<path d="M228.567 88.398L231.666 85.1855" stroke="#263238" stroke-linecap="round" stroke-linejoin="round"/>
<path d="M228.339 90.0014L226.561 88.2275" stroke="#263238" stroke-linecap="round" stroke-linejoin="round"/>
<path d="M281.18 86.9352C284.187 86.9352 286.625 84.496 286.625 81.4871C286.625 78.4782 284.187 76.0391 281.18 76.0391C278.173 76.0391 275.735 78.4782 275.735 81.4871C275.735 84.496 278.173 86.9352 281.18 86.9352Z" fill="#6C5CE7" stroke="#263238" stroke-linecap="round" stroke-linejoin="round"/>
<path d="M281.005 80.8555V101.856" stroke="#263238" stroke-linecap="round" stroke-linejoin="round"/>
<path d="M281.005 83.9556L284.104 80.7432" stroke="#263238" stroke-linecap="round" stroke-linejoin="round"/>
<path d="M280.777 85.56L278.999 83.7812" stroke="#263238" stroke-linecap="round" stroke-linejoin="round"/>
<path d="M284.653 94.6045H229.039V112.164H284.653V94.6045Z" fill="white" stroke="#263238" stroke-linecap="round" stroke-linejoin="round"/>
<path d="M256.918 78.5811L229.189 94.6045H284.653L256.918 78.5811Z" fill="#6C5CE7" stroke="#263238" stroke-linecap="round" stroke-linejoin="round"/>
<path d="M268.114 93.1758H254.354V112.164H268.114V93.1758Z" fill="white" stroke="#263238" stroke-linecap="round" stroke-linejoin="round"/>
<path d="M268.114 93.1758H254.354V93.9825H268.114V93.1758Z" fill="#263238" stroke="#263238" stroke-linecap="round" stroke-linejoin="round"/>
<path d="M264.67 112.164H257.798V100.295C257.798 99.3841 258.159 98.5101 258.803 97.8658C259.447 97.2214 260.321 96.8594 261.232 96.8594C261.683 96.8587 262.13 96.9471 262.547 97.1195C262.964 97.2919 263.344 97.5449 263.663 97.864C263.982 98.1832 264.236 98.5622 264.409 98.9794C264.581 99.3966 264.67 99.8438 264.67 100.295V112.164Z" fill="#263238" stroke="#263238" stroke-linecap="round" stroke-linejoin="round"/>
<path d="M256.923 97.6807H225.046V112.163H256.923V97.6807Z" fill="white" stroke="#263238" stroke-linecap="round" stroke-linejoin="round"/>
<path d="M256.923 97.6807H225.046V98.327H256.923V97.6807Z" fill="#263238" stroke="#263238" stroke-linecap="round" stroke-linejoin="round"/>
<path d="M253.416 98.876H228.553V112.163H253.416V98.876Z" fill="#6C5CE7" stroke="#263238" stroke-linecap="round" stroke-linejoin="round"/>
<path d="M240.987 87.0859L224.07 96.8594H257.904L240.987 87.0859Z" fill="#6C5CE7" stroke="#263238" stroke-linecap="round" stroke-linejoin="round"/>
<path d="M257.904 96.8594H224.07V97.6807H257.904V96.8594Z" fill="white" stroke="#263238" stroke-linecap="round" stroke-linejoin="round"/>
<path d="M261.232 87.6641L252.469 92.7282H269.994L261.232 87.6641Z" fill="#6C5CE7" stroke="#263238" stroke-linecap="round" stroke-linejoin="round"/>
<path d="M269.999 92.7285H252.474V93.5401H269.999V92.7285Z" fill="white" stroke="#263238" stroke-linecap="round" stroke-linejoin="round"/>
<path d="M231.477 99.9404H229.461V101.957H231.477V99.9404Z" fill="white" stroke="#263238" stroke-width="0.5" stroke-linecap="round" stroke-linejoin="round"/>
<path d="M234.498 99.9404H232.482V101.957H234.498V99.9404Z" fill="white" stroke="#263238" stroke-width="0.5" stroke-linecap="round" stroke-linejoin="round"/>
<path d="M237.514 99.9404H235.499V101.957H237.514V99.9404Z" fill="white" stroke="#263238" stroke-width="0.5" stroke-linecap="round" stroke-linejoin="round"/>
<path d="M240.535 99.9404H238.52V101.957H240.535V99.9404Z" fill="white" stroke="#263238" stroke-width="0.5" stroke-linecap="round" stroke-linejoin="round"/>
<path d="M243.556 99.9404H241.541V101.957H243.556V99.9404Z" fill="white" stroke="#263238" stroke-width="0.5" stroke-linecap="round" stroke-linejoin="round"/>
<path d="M246.578 99.9404H244.562V101.957H246.578V99.9404Z" fill="white" stroke="#263238" stroke-width="0.5" stroke-linecap="round" stroke-linejoin="round"/>
<path d="M249.594 99.9404H247.578V101.957H249.594V99.9404Z" fill="white" stroke="#263238" stroke-width="0.5" stroke-linecap="round" stroke-linejoin="round"/>
<path d="M252.615 99.9404H250.599V101.957H252.615V99.9404Z" fill="white" stroke="#263238" stroke-width="0.5" stroke-linecap="round" stroke-linejoin="round"/>
<path d="M231.477 102.905H229.461V104.922H231.477V102.905Z" fill="white" stroke="#263238" stroke-width="0.5" stroke-linecap="round" stroke-linejoin="round"/>
<path d="M234.498 102.905H232.482V104.922H234.498V102.905Z" fill="white" stroke="#263238" stroke-width="0.5" stroke-linecap="round" stroke-linejoin="round"/>
<path d="M237.514 102.905H235.499V104.922H237.514V102.905Z" fill="white" stroke="#263238" stroke-width="0.5" stroke-linecap="round" stroke-linejoin="round"/>
<path d="M240.535 102.905H238.52V104.922H240.535V102.905Z" fill="white" stroke="#263238" stroke-width="0.5" stroke-linecap="round" stroke-linejoin="round"/>
<path d="M243.556 102.905H241.541V104.922H243.556V102.905Z" fill="white" stroke="#263238" stroke-width="0.5" stroke-linecap="round" stroke-linejoin="round"/>
<path d="M246.578 102.905H244.562V104.922H246.578V102.905Z" fill="white" stroke="#263238" stroke-width="0.5" stroke-linecap="round" stroke-linejoin="round"/>
<path d="M249.594 102.905H247.578V104.922H249.594V102.905Z" fill="white" stroke="#263238" stroke-width="0.5" stroke-linecap="round" stroke-linejoin="round"/>
<path d="M252.615 102.905H250.599V104.922H252.615V102.905Z" fill="white" stroke="#263238" stroke-width="0.5" stroke-linecap="round" stroke-linejoin="round"/>
<path d="M231.477 105.87H229.461V107.887H231.477V105.87Z" fill="white" stroke="#263238" stroke-width="0.5" stroke-linecap="round" stroke-linejoin="round"/>
<path d="M234.498 105.87H232.482V107.887H234.498V105.87Z" fill="white" stroke="#263238" stroke-width="0.5" stroke-linecap="round" stroke-linejoin="round"/>
<path d="M237.514 105.87H235.499V107.887H237.514V105.87Z" fill="white" stroke="#263238" stroke-width="0.5" stroke-linecap="round" stroke-linejoin="round"/>
<path d="M240.535 105.87H238.52V107.887H240.535V105.87Z" fill="white" stroke="#263238" stroke-width="0.5" stroke-linecap="round" stroke-linejoin="round"/>
<path d="M243.556 105.87H241.541V107.887H243.556V105.87Z" fill="white" stroke="#263238" stroke-width="0.5" stroke-linecap="round" stroke-linejoin="round"/>
<path d="M246.578 105.87H244.562V107.887H246.578V105.87Z" fill="white" stroke="#263238" stroke-width="0.5" stroke-linecap="round" stroke-linejoin="round"/>
<path d="M249.594 105.87H247.578V107.887H249.594V105.87Z" fill="white" stroke="#263238" stroke-width="0.5" stroke-linecap="round" stroke-linejoin="round"/>
<path d="M252.615 105.87H250.599V107.887H252.615V105.87Z" fill="white" stroke="#263238" stroke-width="0.5" stroke-linecap="round" stroke-linejoin="round"/>
<path d="M231.477 108.834H229.461V110.851H231.477V108.834Z" fill="white" stroke="#263238" stroke-width="0.5" stroke-linecap="round" stroke-linejoin="round"/>
<path d="M234.498 108.834H232.482V110.851H234.498V108.834Z" fill="white" stroke="#263238" stroke-width="0.5" stroke-linecap="round" stroke-linejoin="round"/>
<path d="M237.514 108.834H235.499V110.851H237.514V108.834Z" fill="white" stroke="#263238" stroke-width="0.5" stroke-linecap="round" stroke-linejoin="round"/>
<path d="M240.535 108.834H238.52V110.851H240.535V108.834Z" fill="white" stroke="#263238" stroke-width="0.5" stroke-linecap="round" stroke-linejoin="round"/>
<path d="M243.556 108.834H241.541V110.851H243.556V108.834Z" fill="white" stroke="#263238" stroke-width="0.5" stroke-linecap="round" stroke-linejoin="round"/>
<path d="M246.578 108.834H244.562V110.851H246.578V108.834Z" fill="white" stroke="#263238" stroke-width="0.5" stroke-linecap="round" stroke-linejoin="round"/>
<path d="M249.594 108.834H247.578V110.851H249.594V108.834Z" fill="white" stroke="#263238" stroke-width="0.5" stroke-linecap="round" stroke-linejoin="round"/>
<path d="M252.615 108.834H250.599V110.851H252.615V108.834Z" fill="white" stroke="#263238" stroke-width="0.5" stroke-linecap="round" stroke-linejoin="round"/>
<path d="M286.231 112.163H265.895V93.1753L276.065 87.6641L286.231 93.1753V112.163Z" fill="white" stroke="#263238" stroke-linecap="round" stroke-linejoin="round"/>
<path d="M287.786 93.9876L276.065 87.6307L264.345 93.9876L263.976 93.312L276.065 86.7607L288.15 93.312L287.786 93.9876Z" fill="white" stroke="#263238" stroke-linecap="round" stroke-linejoin="round"/>
<path d="M265.895 93.1753V93.637L276.065 88.1258L286.231 93.637V93.1753L276.065 87.6641L265.895 93.1753Z" fill="#263238" stroke="#263238" stroke-linecap="round" stroke-linejoin="round"/>
<path d="M279.801 99.6826H276.391V102.054H279.801V99.6826Z" fill="#263238" stroke="#263238" stroke-linecap="round" stroke-linejoin="round"/>
<path d="M279.801 102.837H276.391V105.209H279.801V102.837Z" fill="#263238" stroke="#263238" stroke-linecap="round" stroke-linejoin="round"/>
<path d="M279.801 96.373H276.391V98.9051H279.801V96.373Z" fill="#263238" stroke="#263238" stroke-linecap="round" stroke-linejoin="round"/>
<path d="M275.609 96.373H272.199V98.9051H275.609V96.373Z" fill="#263238" stroke="#263238" stroke-linecap="round" stroke-linejoin="round"/>
<path d="M275.609 102.837H272.199V105.209H275.609V102.837Z" fill="#263238" stroke="#263238" stroke-linecap="round" stroke-linejoin="round"/>
<path d="M275.609 99.6826H272.199V102.054H275.609V99.6826Z" fill="#263238" stroke="#263238" stroke-linecap="round" stroke-linejoin="round"/>
<path d="M279.801 105.991H276.391V108.173H279.801V105.991Z" fill="#263238" stroke="#263238" stroke-linecap="round" stroke-linejoin="round"/>
<path d="M275.609 105.991H272.199V108.173H275.609V105.991Z" fill="#263238" stroke="#263238" stroke-linecap="round" stroke-linejoin="round"/>
<path d="M273.413 119.487H238.17C236.292 119.487 234.77 121.01 234.77 122.889V132.211C234.77 134.09 236.292 135.613 238.17 135.613H273.413C275.291 135.613 276.813 134.09 276.813 132.211V122.889C276.813 121.01 275.291 119.487 273.413 119.487Z" fill="#6C5CE7" stroke="#263238" stroke-linecap="round" stroke-linejoin="round"/>
<path d="M247.331 124.318C248.302 124.318 248.827 124.911 248.827 125.951V126.155H247.855V125.874C247.855 125.412 247.671 125.237 247.345 125.237C247.02 125.237 246.859 125.412 246.859 125.874C246.859 127.21 248.846 127.458 248.846 129.31C248.846 130.35 248.331 130.943 247.331 130.943C246.33 130.943 245.81 130.35 245.81 129.31V128.911H246.782V129.397C246.782 129.859 246.986 130.024 247.311 130.024C247.637 130.024 247.841 129.859 247.841 129.397C247.841 128.061 245.849 127.813 245.849 125.961C245.83 124.902 246.34 124.318 247.331 124.318Z" fill="#263238"/>
<path d="M250.439 127.128H251.833V128.051H250.439V129.952H252.197V130.875H249.419V124.416H252.197V125.339H250.439V127.128Z" fill="#263238"/>
<path d="M252.824 124.416H253.839V129.971H255.515V130.894H252.824V124.416Z" fill="#263238"/>
<path d="M256.977 127.128H258.4V128.051H257.001V129.952H258.759V130.875H255.971V124.416H258.75V125.339H256.991L256.977 127.128Z" fill="#263238"/>
<path d="M262.315 128.459V129.319C262.315 130.359 261.795 130.952 260.799 130.952C259.804 130.952 259.279 130.359 259.279 129.319V125.951C259.279 124.911 259.799 124.318 260.799 124.318C261.8 124.318 262.315 124.911 262.315 125.951V126.578H261.343V125.874C261.343 125.412 261.139 125.237 260.814 125.237C260.488 125.237 260.289 125.412 260.289 125.874V129.378C260.289 129.839 260.493 130.005 260.814 130.005C261.134 130.005 261.343 129.839 261.343 129.378V128.449L262.315 128.459Z" fill="#263238"/>
<path d="M262.64 124.416H265.783V125.339H264.714V130.894H263.699V125.32H262.635L262.64 124.416Z" fill="#263238"/>
<path d="M269.571 143.019C269.571 143.019 267.483 139.646 266.808 139.131C266.132 138.616 264.515 138.645 264.248 139.802C263.981 140.959 264.651 141.556 265.122 142.028C265.733 142.802 266.296 143.614 266.808 144.458C267.386 145.396 267.512 146.839 268.022 147.86C269.188 150.197 271.475 152.18 274.195 152.195C277.207 152.195 280.092 149.614 280.51 146.611C280.675 145.337 280.704 141.79 280.709 140.565C280.713 140.291 280.618 140.025 280.442 139.816C280.215 139.555 279.903 139.383 279.562 139.33C279.22 139.278 278.871 139.348 278.576 139.53L278.353 139.666L278.115 139.292C277.942 138.996 277.685 138.759 277.377 138.611C277.115 138.473 276.814 138.423 276.522 138.471C276.229 138.518 275.96 138.66 275.754 138.874L275.521 139.131L275.249 138.689C274.657 137.975 273.374 137.907 272.821 138.655V133.309C272.821 132.887 272.653 132.483 272.356 132.185C272.058 131.887 271.654 131.72 271.232 131.72C270.811 131.72 270.407 131.887 270.109 132.185C269.812 132.483 269.644 132.887 269.644 133.309L269.571 143.019Z" fill="white" stroke="#263238" stroke-linecap="round" stroke-linejoin="round"/>
<path d="M275.482 139.112V142.213" stroke="#263238" stroke-linecap="round" stroke-linejoin="round"/>
<path d="M278.314 139.646V142.412" stroke="#263238" stroke-linecap="round" stroke-linejoin="round"/>
<path d="M272.787 138.636V141.804" stroke="#263238" stroke-linecap="round" stroke-linejoin="round"/>
<path d="M271.198 127.39V130.539" stroke="#263238" stroke-linecap="round" stroke-linejoin="round"/>
<path d="M273.744 132.479H276.41" stroke="#263238" stroke-linecap="round" stroke-linejoin="round"/>
<path d="M265.627 132.479H268.294" stroke="#263238" stroke-linecap="round" stroke-linejoin="round"/>
<path d="M273.136 130.539L274.229 129.207" stroke="#263238" stroke-linecap="round" stroke-linejoin="round"/>
<path d="M268.896 130.539L267.808 129.207" stroke="#263238" stroke-linecap="round" stroke-linejoin="round"/>
<path d="M289.136 55.8506H222.657C220.599 55.8506 218.931 57.5195 218.931 59.5782V153.089C218.931 155.148 220.599 156.817 222.657 156.817H289.136C291.194 156.817 292.862 155.148 292.862 153.089V59.5782C292.862 57.5195 291.194 55.8506 289.136 55.8506Z" stroke="#263238" stroke-linecap="round" stroke-linejoin="round"/>
<path d="M288.835 55.8507H222.943C221.874 55.8507 220.848 56.2756 220.092 57.0321C219.336 57.7886 218.911 58.8146 218.911 59.8845V60.7495H292.886V59.8747C292.885 59.344 292.78 58.8186 292.575 58.3288C292.371 57.8389 292.072 57.3943 291.696 57.0204C291.32 56.6464 290.873 56.3506 290.382 56.1499C289.891 55.9491 289.365 55.8475 288.835 55.8507Z" fill="#263238" stroke="#263238" stroke-linecap="round" stroke-linejoin="round"/>
<path d="M281.651 59.3448C282.279 59.3448 282.788 58.8356 282.788 58.2076C282.788 57.5795 282.279 57.0703 281.651 57.0703C281.023 57.0703 280.515 57.5795 280.515 58.2076C280.515 58.8356 281.023 59.3448 281.651 59.3448Z" fill="white" stroke="#263238" stroke-linecap="round" stroke-linejoin="round"/>
<path d="M285.857 59.3448C286.485 59.3448 286.994 58.8356 286.994 58.2076C286.994 57.5795 286.485 57.0703 285.857 57.0703C285.23 57.0703 284.721 57.5795 284.721 58.2076C284.721 58.8356 285.23 59.3448 285.857 59.3448Z" fill="white" stroke="#263238" stroke-linecap="round" stroke-linejoin="round"/>
<path d="M257.885 157.167V178.206" stroke="#263238" stroke-linecap="round" stroke-linejoin="round"/>
</svg>
